<?xml version="1.0" encoding="UTF-8" standalone="no"?>
<!DOCTYPE svg PUBLIC "-//W3C//DTD SVG 1.1//EN" "http://www.w3.org/Graphics/SVG/1.1/DTD/svg11.dtd">
<svg version="1.1" xmlns="http://www.w3.org/2000/svg" xmlns:xlink="http://www.w3.org/1999/xlink" preserveAspectRatio="xMidYMid meet" viewBox="0 0 640 640" width="640" height="640"><defs><path d="M630 0C635.52 0 640 4.48 640 10C640 136 640 504 640 630C640 635.52 635.52 640 630 640C504 640 136 640 10 640C4.48 640 0 635.52 0 630C0 504 0 136 0 10C0 4.48 4.48 0 10 0C136 0 504 0 630 0Z" id="a9PsOnQk"></path><path d="M610.84 67.43C616.11 67.43 620.38 71.7 620.38 76.97C620.38 83.62 620.38 94 620.38 100.64C620.38 105.91 616.11 110.18 610.84 110.18C523.44 110.18 270.76 110.18 183.36 110.18C178.09 110.18 173.82 105.91 173.82 100.64C173.82 94 173.82 83.62 173.82 76.97C173.82 71.7 178.09 67.43 183.36 67.43C270.76 67.43 523.44 67.43 610.84 67.43Z" id="aPQcF39Wp"></path><path d="M100.63 45.3L43.76 45.3L43.76 132.32L129.07 132.32L129.07 81.55L143.28 81.55L143.28 146.82L29.54 146.82L29.54 30.79L100.63 30.79L100.63 45.3ZM97.85 97.58L97.85 97.58L81.37 114.39L50.85 83.26L67.33 66.45L81.37 80.77L119.7 41.67L136.17 58.48L97.85 97.58Z" id="a2WgM6zuW3"></path><path d="M100.63 196.52L43.76 196.52L43.76 283.54L129.07 283.54L129.07 232.78L143.28 232.78L143.28 298.04L29.54 298.04L29.54 182.01L100.63 182.01L100.63 196.52ZM97.85 248.8L97.85 248.8L81.37 265.61L50.85 234.48L67.33 217.67L81.37 231.99L119.7 192.89L136.17 209.7L97.85 248.8Z" id="g1oIfSefri"></path><path d="M610.84 218.65C616.11 218.65 620.38 222.93 620.38 228.2C620.38 234.84 620.38 245.22 620.38 251.86C620.38 257.13 616.11 261.4 610.84 261.4C523.44 261.4 270.76 261.4 183.36 261.4C178.09 261.4 173.82 257.13 173.82 251.86C173.82 245.22 173.82 234.84 173.82 228.2C173.82 222.93 178.09 218.65 183.36 218.65C270.76 218.65 523.44 218.65 610.84 218.65Z" id="fOhl2LkIP"></path><path d="M100.63 345.45L43.76 345.45L43.76 432.47L129.07 432.47L129.07 381.71L143.28 381.71L143.28 446.97L29.54 446.97L29.54 330.94L100.63 330.94L100.63 345.45ZM97.85 397.73L97.85 397.74L81.37 414.54L50.85 383.41L67.33 366.6L81.37 380.92L119.7 341.82L136.17 358.63L97.85 397.73Z" id="blWuJt53w"></path><path d="M610.84 367.59C616.11 367.59 620.38 371.86 620.38 377.13C620.38 383.77 620.38 394.15 620.38 400.79C620.38 406.06 616.11 410.33 610.84 410.33C523.44 410.33 270.76 410.33 183.36 410.33C178.09 410.33 173.82 406.06 173.82 400.79C173.82 394.15 173.82 383.77 173.82 377.13C173.82 371.86 178.09 367.59 183.36 367.59C270.76 367.59 523.44 367.59 610.84 367.59Z" id="a2YXcI6NK"></path><path d="M100.63 491.33L43.76 491.33L43.76 578.35L129.07 578.35L129.07 527.59L143.28 527.59L143.28 592.85L29.54 592.85L29.54 476.82L100.63 476.82L100.63 491.33ZM97.85 543.61L97.85 543.61L81.37 560.42L50.85 529.29L67.33 512.48L81.37 526.8L119.7 487.7L136.17 504.51L97.85 543.61Z" id="agMhGaifk"></path><path d="M610.84 513.46C616.11 513.46 620.38 517.74 620.38 523.01C620.38 529.65 620.38 540.03 620.38 546.67C620.38 551.94 616.11 556.21 610.84 556.21C523.44 556.21 270.76 556.21 183.36 556.21C178.09 556.21 173.82 551.94 173.82 546.67C173.82 540.03 173.82 529.65 173.82 523.01C173.82 517.74 178.09 513.46 183.36 513.46C270.76 513.46 523.44 513.46 610.84 513.46Z" id="gF9sFJlGV"></path></defs><g><g><g><use xlink:href="#a9PsOnQk" opacity="1" fill="#bbbbbb" fill-opacity="1"></use></g><g><g><filter id="shadow16272246" x="148.82" y="42.43" width="500.56" height="98.75" filterUnits="userSpaceOnUse" primitiveUnits="userSpaceOnUse"><feFlood></feFlood><feComposite in2="SourceAlpha" operator="in"></feComposite><feGaussianBlur stdDeviation="2.45"></feGaussianBlur><feOffset dx="4" dy="6" result="afterOffset"></feOffset><feFlood flood-color="#000000" flood-opacity="0.5"></feFlood><feComposite in2="afterOffset" operator="in"></feComposite><feMorphology operator="dilate" radius="2"></feMorphology><feComposite in2="SourceAlpha" operator="out"></feComposite></filter><path d="M610.84 67.43C616.11 67.43 620.38 71.7 620.38 76.97C620.38 83.62 620.38 94 620.38 100.64C620.38 105.91 616.11 110.18 610.84 110.18C523.44 110.18 270.76 110.18 183.36 110.18C178.09 110.18 173.82 105.91 173.82 100.64C173.82 94 173.82 83.62 173.82 76.97C173.82 71.7 178.09 67.43 183.36 67.43C270.76 67.43 523.44 67.43 610.84 67.43Z" id="ehzxZjuTu" fill="white" fill-opacity="1" filter="url(#shadow16272246)"></path></g><use xlink:href="#aPQcF39Wp" opacity="1" fill="#ffffff" fill-opacity="1"></use><g><use xlink:href="#aPQcF39Wp" opacity="1" fill-opacity="0" stroke="#000000" stroke-width="0" stroke-opacity="1"></use></g></g><g><g><filter id="shadow2417849" x="4.54" y="5.79" width="177.74" height="173.03" filterUnits="userSpaceOnUse" primitiveUnits="userSpaceOnUse"><feFlood></feFlood><feComposite in2="SourceAlpha" operator="in"></feComposite><feGaussianBlur stdDeviation="1.73"></feGaussianBlur><feOffset dx="14" dy="7" result="afterOffset"></feOffset><feFlood flood-color="#506b4f" flood-opacity="0.5"></feFlood><feComposite in2="afterOffset" operator="in"></feComposite><feMorphology operator="dilate" radius="0"></feMorphology><feComposite in2="SourceAlpha" operator="out"></feComposite></filter><path d="M100.63 45.3L43.76 45.3L43.76 132.32L129.07 132.32L129.07 81.55L143.28 81.55L143.28 146.82L29.54 146.82L29.54 30.79L100.63 30.79L100.63 45.3ZM97.85 97.58L97.85 97.58L81.37 114.39L50.85 83.26L67.33 66.45L81.37 80.77L119.7 41.67L136.17 58.48L97.85 97.58Z" id="b1QxRksyhE" fill="white" fill-opacity="1" filter="url(#shadow2417849)"></path></g><use xlink:href="#a2WgM6zuW3" opacity="1" fill="#ffffff" fill-opacity="1"></use><g><use xlink:href="#a2WgM6zuW3" opacity="1" fill-opacity="0" stroke="#5e4a97" stroke-width="0" stroke-opacity="1"></use></g></g><g><g><filter id="shadow6031900" x="4.54" y="157.01" width="177.74" height="173.03" filterUnits="userSpaceOnUse" primitiveUnits="userSpaceOnUse"><feFlood></feFlood><feComposite in2="SourceAlpha" operator="in"></feComposite><feGaussianBlur stdDeviation="1.73"></feGaussianBlur><feOffset dx="14" dy="7" result="afterOffset"></feOffset><feFlood flood-color="#506b4f" flood-opacity="0.5"></feFlood><feComposite in2="afterOffset" operator="in"></feComposite><feMorphology operator="dilate" radius="0"></feMorphology><feComposite in2="SourceAlpha" operator="out"></feComposite></filter><path d="M100.63 196.52L43.76 196.52L43.76 283.54L129.07 283.54L129.07 232.78L143.28 232.78L143.28 298.04L29.54 298.04L29.54 182.01L100.63 182.01L100.63 196.52ZM97.85 248.8L97.85 248.8L81.37 265.61L50.85 234.48L67.33 217.67L81.37 231.99L119.7 192.89L136.17 209.7L97.85 248.8Z" id="b3wF80ivV5" fill="white" fill-opacity="1" filter="url(#shadow6031900)"></path></g><use xlink:href="#g1oIfSefri" opacity="1" fill="#ffffff" fill-opacity="1"></use><g><use xlink:href="#g1oIfSefri" opacity="1" fill-opacity="0" stroke="#5e4a97" stroke-width="0" stroke-opacity="1"></use></g></g><g><g><filter id="shadow8770470" x="148.82" y="193.65" width="500.56" height="98.75" filterUnits="userSpaceOnUse" primitiveUnits="userSpaceOnUse"><feFlood></feFlood><feComposite in2="SourceAlpha" operator="in"></feComposite><feGaussianBlur stdDeviation="2.45"></feGaussianBlur><feOffset dx="4" dy="6" result="afterOffset"></feOffset><feFlood flood-color="#000000" flood-opacity="0.5"></feFlood><feComposite in2="afterOffset" operator="in"></feComposite><feMorphology operator="dilate" radius="2"></feMorphology><feComposite in2="SourceAlpha" operator="out"></feComposite></filter><path d="M610.84 218.65C616.11 218.65 620.38 222.93 620.38 228.2C620.38 234.84 620.38 245.22 620.38 251.86C620.38 257.13 616.11 261.4 610.84 261.4C523.44 261.4 270.76 261.4 183.36 261.4C178.09 261.4 173.82 257.13 173.82 251.86C173.82 245.22 173.82 234.84 173.82 228.2C173.82 222.93 178.09 218.65 183.36 218.65C270.76 218.65 523.44 218.65 610.84 218.65Z" id="aDldxt9d0" fill="white" fill-opacity="1" filter="url(#shadow8770470)"></path></g><use xlink:href="#fOhl2LkIP" opacity="1" fill="#ffffff" fill-opacity="1"></use><g><use xlink:href="#fOhl2LkIP" opacity="1" fill-opacity="0" stroke="#000000" stroke-width="0" stroke-opacity="1"></use></g></g><g><g><filter id="shadow7481938" x="4.54" y="305.94" width="177.74" height="173.03" filterUnits="userSpaceOnUse" primitiveUnits="userSpaceOnUse"><feFlood></feFlood><feComposite in2="SourceAlpha" operator="in"></feComposite><feGaussianBlur stdDeviation="1.73"></feGaussianBlur><feOffset dx="14" dy="7" result="afterOffset"></feOffset><feFlood flood-color="#506b4f" flood-opacity="0.5"></feFlood><feComposite in2="afterOffset" operator="in"></feComposite><feMorphology operator="dilate" radius="0"></feMorphology><feComposite in2="SourceAlpha" operator="out"></feComposite></filter><path d="M100.63 345.45L43.76 345.45L43.76 432.47L129.07 432.47L129.07 381.71L143.28 381.71L143.28 446.97L29.54 446.97L29.54 330.94L100.63 330.94L100.63 345.45ZM97.85 397.73L97.85 397.74L81.37 414.54L50.85 383.41L67.33 366.6L81.37 380.92L119.7 341.82L136.17 358.63L97.85 397.73Z" id="j1MQfuOyYh" fill="white" fill-opacity="1" filter="url(#shadow7481938)"></path></g><use xlink:href="#blWuJt53w" opacity="1" fill="#ffffff" fill-opacity="1"></use><g><use xlink:href="#blWuJt53w" opacity="1" fill-opacity="0" stroke="#5e4a97" stroke-width="0" stroke-opacity="1"></use></g></g><g><g><filter id="shadow16329497" x="148.82" y="342.59" width="500.56" height="98.75" filterUnits="userSpaceOnUse" primitiveUnits="userSpaceOnUse"><feFlood></feFlood><feComposite in2="SourceAlpha" operator="in"></feComposite><feGaussianBlur stdDeviation="2.45"></feGaussianBlur><feOffset dx="4" dy="6" result="afterOffset"></feOffset><feFlood flood-color="#000000" flood-opacity="0.5"></feFlood><feComposite in2="afterOffset" operator="in"></feComposite><feMorphology operator="dilate" radius="2"></feMorphology><feComposite in2="SourceAlpha" operator="out"></feComposite></filter><path d="M610.84 367.59C616.11 367.59 620.38 371.86 620.38 377.13C620.38 383.77 620.38 394.15 620.38 400.79C620.38 406.06 616.11 410.33 610.84 410.33C523.44 410.33 270.76 410.33 183.36 410.33C178.09 410.33 173.82 406.06 173.82 400.79C173.82 394.15 173.82 383.77 173.82 377.13C173.82 371.86 178.09 367.59 183.36 367.59C270.76 367.59 523.44 367.59 610.84 367.59Z" id="gvi4KV5XK" fill="white" fill-opacity="1" filter="url(#shadow16329497)"></path></g><use xlink:href="#a2YXcI6NK" opacity="1" fill="#ffffff" fill-opacity="1"></use><g><use xlink:href="#a2YXcI6NK" opacity="1" fill-opacity="0" stroke="#000000" stroke-width="0" stroke-opacity="1"></use></g></g><g><g><filter id="shadow13419623" x="4.54" y="451.82" width="177.74" height="173.03" filterUnits="userSpaceOnUse" primitiveUnits="userSpaceOnUse"><feFlood></feFlood><feComposite in2="SourceAlpha" operator="in"></feComposite><feGaussianBlur stdDeviation="1.73"></feGaussianBlur><feOffset dx="14" dy="7" result="afterOffset"></feOffset><feFlood flood-color="#506b4f" flood-opacity="0.5"></feFlood><feComposite in2="afterOffset" operator="in"></feComposite><feMorphology operator="dilate" radius="0"></feMorphology><feComposite in2="SourceAlpha" operator="out"></feComposite></filter><path d="M100.63 491.33L43.76 491.33L43.76 578.35L129.07 578.35L129.07 527.59L143.28 527.59L143.28 592.85L29.54 592.85L29.54 476.82L100.63 476.82L100.63 491.33ZM97.85 543.61L97.85 543.61L81.37 560.42L50.85 529.29L67.33 512.48L81.37 526.8L119.7 487.7L136.17 504.51L97.85 543.61Z" id="f1PxoSqWvL" fill="white" fill-opacity="1" filter="url(#shadow13419623)"></path></g><use xlink:href="#agMhGaifk" opacity="1" fill="#ffffff" fill-opacity="1"></use><g><use xlink:href="#agMhGaifk" opacity="1" fill-opacity="0" stroke="#5e4a97" stroke-width="0" stroke-opacity="1"></use></g></g><g><g><filter id="shadow4039587" x="148.82" y="488.46" width="500.56" height="98.75" filterUnits="userSpaceOnUse" primitiveUnits="userSpaceOnUse"><feFlood></feFlood><feComposite in2="SourceAlpha" operator="in"></feComposite><feGaussianBlur stdDeviation="2.45"></feGaussianBlur><feOffset dx="4" dy="6" result="afterOffset"></feOffset><feFlood flood-color="#000000" flood-opacity="0.5"></feFlood><feComposite in2="afterOffset" operator="in"></feComposite><feMorphology operator="dilate" radius="2"></feMorphology><feComposite in2="SourceAlpha" operator="out"></feComposite></filter><path d="M610.84 513.46C616.11 513.46 620.38 517.74 620.38 523.01C620.38 529.65 620.38 540.03 620.38 546.67C620.38 551.94 616.11 556.21 610.84 556.21C523.44 556.21 270.76 556.21 183.36 556.21C178.09 556.21 173.82 551.94 173.82 546.67C173.82 540.03 173.82 529.65 173.82 523.01C173.82 517.74 178.09 513.46 183.36 513.46C270.76 513.46 523.44 513.46 610.84 513.46Z" id="bqLh6Xq41" fill="white" fill-opacity="1" filter="url(#shadow4039587)"></path></g><use xlink:href="#gF9sFJlGV" opacity="1" fill="#ffffff" fill-opacity="1"></use><g><use xlink:href="#gF9sFJlGV" opacity="1" fill-opacity="0" stroke="#000000" stroke-width="0" stroke-opacity="1"></use></g></g></g></g></svg>