<?xml version="1.0" standalone="no"?>
<!DOCTYPE svg PUBLIC "-//W3C//DTD SVG 20010904//EN"
 "http://www.w3.org/TR/2001/REC-SVG-20010904/DTD/svg10.dtd">
<svg version="1.0" xmlns="http://www.w3.org/2000/svg"
 width="700.000000pt" height="700.000000pt" viewBox="0 0 700.000000 700.000000"
 preserveAspectRatio="xMidYMid meet">
<metadata>
Created by potrace 1.11, written by Peter Selinger 2001-2013
</metadata>
<g transform="translate(0.000000,700.000000) scale(0.100000,-0.100000)"
fill="#000000" stroke="none">
<path d="M339 6662 c-13 -2 -15 -83 -15 -635 l1 -632 620 0 620 0 1 358 1 357
-79 0 -78 0 0 -278 0 -279 -465 1 -465 0 0 40 c-3 243 0 898 4 904 2 4 142 7
310 7 l307 0 -3 79 -3 79 -371 1 c-204 1 -377 0 -385 -2z"/>
<path d="M1096 6328 l-206 -213 -77 78 -76 79 -88 -88 c-49 -49 -88 -92 -87
-96 2 -4 76 -81 166 -172 l162 -165 204 207 c334 339 386 394 386 404 0 10
-161 178 -171 178 -4 0 -99 -96 -213 -212z"/>
<path d="M1999 6259 c-47 -8 -77 -29 -89 -63 -17 -48 -13 -312 5 -346 9 -17
20 -30 26 -30 6 0 9 -6 6 -14 -4 -10 1 -13 19 -11 13 1 31 -3 40 -9 13 -10 13
-12 -5 -12 -11 0 -17 5 -14 10 3 5 1 6 -6 2 -6 -4 -9 -12 -6 -17 4 -5 1 -9 -6
-9 -7 0 -9 -3 -6 -6 4 -4 13 -1 22 6 9 7 19 9 23 5 4 -4 1 -10 -5 -12 -7 -3
-13 -9 -13 -14 0 -6 4 -8 9 -5 5 4 11 0 14 -6 3 -7 5 -4 6 7 4 62 1 60 67 60
49 0 60 -3 52 -12 -7 -9 -7 -13 0 -13 5 0 15 6 21 14 14 17 39 15 52 -5 13
-21 11 -25 -16 -43 -24 -16 -25 -16 -21 6 3 13 5 25 5 28 1 3 5 -1 10 -9 6 -9
11 -10 15 -2 4 6 2 12 -3 12 -37 5 -46 2 -46 -10 0 -8 -6 -16 -14 -19 -8 -3
-11 0 -8 6 4 5 -1 16 -10 23 -14 12 -16 12 -8 -1 8 -13 7 -13 -10 0 -10 8 -19
15 -20 15 -1 0 -10 -7 -20 -15 -11 -8 -16 -10 -11 -3 5 9 2 11 -9 7 -14 -6
-14 -8 1 -19 9 -6 14 -16 11 -22 -3 -5 0 -10 7 -10 9 0 12 7 8 16 -5 14 -3 14
10 3 11 -9 18 -10 23 -2 3 6 11 7 17 4 6 -4 1 -13 -13 -21 -15 -9 -17 -12 -5
-9 10 4 26 1 35 -6 14 -11 14 -11 3 3 -10 14 -10 18 2 22 8 3 16 1 18 -5 2 -6
12 -12 21 -14 9 -1 15 1 13 5 -3 4 5 13 16 20 17 11 20 11 16 -1 -4 -9 1 -14
12 -14 10 0 16 5 13 10 -4 5 1 7 9 3 9 -3 21 0 27 6 10 9 11 6 8 -13 -2 -14
-2 -19 0 -12 4 11 8 11 21 1 14 -11 15 -11 5 1 -17 19 -17 35 0 21 10 -7 17
-7 24 0 8 8 13 8 17 0 4 -6 2 -11 -5 -11 -7 0 -10 -3 -7 -6 4 -3 16 0 29 6 18
10 21 10 17 -2 -4 -10 1 -14 17 -14 13 0 22 3 20 6 -2 3 6 12 17 19 18 11 20
11 14 -4 -6 -16 -5 -16 18 -1 31 20 42 21 27 2 -8 -10 -9 -16 -1 -21 6 -4 10
-3 9 2 -4 21 3 22 34 8 25 -12 28 -13 14 -1 -11 8 -14 17 -8 20 5 4 17 -4 26
-16 16 -22 16 -22 11 -2 -5 15 -2 21 9 21 10 0 14 -6 10 -15 -4 -12 -1 -11 20
2 29 19 32 11 8 -18 -14 -16 -14 -18 -2 -8 9 6 20 8 24 4 5 -4 5 -1 1 6 -5 8
0 12 14 12 12 0 19 -4 16 -8 -2 -4 6 -8 19 -8 21 0 26 9 7 12 -40 8 -51 17
-42 34 8 15 6 18 -8 16 -9 -2 -20 1 -23 6 -3 5 -9 2 -12 -7 -5 -10 -3 -14 4
-9 7 4 10 2 8 -5 -7 -21 -24 -12 -24 12 -1 20 4 23 35 22 19 0 40 -4 47 -8 6
-4 14 -3 17 2 13 20 58 -2 49 -25 -5 -12 -7 -12 -19 3 -13 17 -14 17 -8 1 4
-11 1 -18 -6 -18 -6 0 -9 4 -5 9 3 5 0 13 -6 17 -7 4 -9 3 -5 -4 4 -7 -1 -10
-14 -7 -11 2 -20 0 -20 -6 0 -5 5 -10 10 -10 6 -1 15 -2 21 -3 6 0 17 -10 26
-21 15 -20 15 -20 9 1 -5 15 -2 21 9 21 10 0 14 -6 10 -15 -4 -12 -1 -11 20 2
29 19 32 11 8 -18 -14 -16 -14 -18 -2 -8 9 6 20 8 24 4 5 -4 5 -1 1 6 -5 8 0
12 14 12 12 0 19 -4 16 -8 -2 -4 6 -8 19 -8 21 0 26 9 7 12 -40 8 -51 17 -42
34 8 15 6 18 -8 16 -9 -2 -20 1 -23 6 -3 5 -9 2 -12 -7 -5 -10 -3 -14 4 -9 7
4 10 2 8 -5 -7 -21 -24 -12 -24 12 -1 20 4 23 35 22 19 0 40 -4 47 -8 6 -4 14
-3 17 2 13 20 58 -2 49 -25 -5 -12 -7 -12 -19 3 -13 17 -14 17 -8 1 4 -11 1
-18 -6 -18 -6 0 -9 4 -5 9 3 5 0 13 -6 17 -7 4 -9 3 -5 -4 4 -7 -1 -10 -14 -7
-11 2 -20 0 -20 -6 0 -5 5 -10 10 -10 6 -1 15 -2 21 -3 6 0 17 -10 26 -21 15
-20 15 -20 9 1 -5 15 -2 21 9 21 10 0 14 -6 10 -15 -4 -12 -1 -11 20 2 29 19
32 11 8 -18 -14 -16 -14 -18 -2 -8 9 6 20 8 24 4 5 -4 5 -1 1 6 -5 8 0 12 14
12 12 0 19 -4 16 -8 -2 -4 6 -8 19 -8 21 0 26 9 7 12 -40 8 -51 17 -42 34 8
15 6 18 -8 16 -9 -2 -20 1 -23 6 -3 5 -9 2 -12 -7 -5 -10 -3 -14 4 -9 7 4 10
2 8 -5 -7 -21 -24 -12 -24 12 -1 20 4 23 35 22 19 0 40 -4 47 -8 6 -4 14 -3
17 2 13 20 58 -2 49 -25 -5 -12 -7 -12 -19 3 -13 17 -14 17 -8 1 4 -11 1 -18
-6 -18 -6 0 -9 4 -5 9 3 5 0 13 -6 17 -7 4 -9 3 -5 -4 4 -7 -1 -10 -14 -7 -11
2 -20 0 -20 -6 0 -5 5 -10 10 -10 6 -1 15 -2 21 -3 6 0 17 -10 26 -21 15 -20
15 -20 9 1 -5 15 -2 21 9 21 10 0 14 -6 10 -15 -4 -12 -1 -11 20 2 29 19 32
11 8 -18 -14 -16 -14 -18 -2 -8 9 6 20 8 24 4 5 -4 5 -1 1 6 -5 8 0 12 14 12
12 0 19 -4 16 -8 -2 -4 6 -8 19 -8 21 0 26 9 7 12 -40 8 -51 17 -42 34 8 15 6
18 -8 16 -9 -2 -20 1 -23 6 -3 5 -9 2 -12 -7 -5 -10 -3 -14 4 -9 7 4 10 2 8
-5 -7 -21 -24 -12 -24 12 -1 20 4 23 35 22 19 0 40 -4 47 -8 6 -4 14 -3 17 2
13 20 58 -2 49 -25 -5 -12 -7 -12 -19 3 -13 17 -14 17 -8 1 4 -11 1 -18 -6
-18 -6 0 -9 4 -5 9 3 5 0 13 -6 17 -7 4 -9 3 -5 -4 4 -7 -1 -10 -14 -7 -11 2
-20 0 -20 -6 0 -5 5 -10 10 -10 6 -1 15 -2 21 -3 6 0 17 -10 26 -21 15 -20 15
-20 9 1 -5 15 -2 21 9 21 10 0 14 -6 10 -15 -4 -12 -1 -11 20 2 29 19 32 11 8
-18 -14 -16 -14 -18 -2 -8 9 6 20 8 24 4 5 -4 5 -1 1 6 -5 8 0 12 14 12 12 0
19 -4 16 -8 -2 -4 6 -8 19 -8 21 0 26 9 7 12 -40 8 -51 17 -42 34 8 15 6 18
-8 16 -9 -2 -20 1 -23 6 -3 5 -9 2 -12 -7 -5 -10 -3 -14 4 -9 7 4 10 2 8 -5
-7 -21 -24 -12 -24 12 -1 20 4 23 35 22 19 0 40 -4 47 -8 6 -4 14 -3 17 2 13
20 58 -2 49 -25 -5 -12 -7 -12 -19 3 -13 17 -14 17 -8 1 4 -11 1 -18 -6 -18
-6 0 -9 4 -5 9 3 5 0 13 -6 17 -7 4 -9 3 -5 -4 4 -7 -1 -10 -14 -7 -11 2 -20
0 -20 -6 0 -5 5 -10 10 -10 6 -1 15 -2 21 -3 6 0 17 -10 26 -21 15 -20 15 -20
9 1 -5 15 -2 21 9 21 10 0 14 -6 10 -15 -4 -12 -1 -11 20 2 29 19 32 11 8 -18
-14 -16 -14 -18 -2 -8 9 6 20 8 24 4 5 -4 5 -1 1 6 -5 8 0 12 14 12 12 0 19
-4 16 -8 -2 -4 6 -8 19 -8 21 0 26 9 7 12 -40 8 -51 17 -42 34 8 15 6 18 -8
16 -9 -2 -20 1 -23 6 -3 5 -9 2 -12 -7 -5 -10 -3 -14 4 -9 7 4 10 2 8 -5 -7
-21 -24 -12 -24 12 -1 20 4 23 35 22 19 0 40 -4 47 -8 6 -4 14 -3 17 2 13 20
58 -2 49 -25 -5 -12 -7 -12 -19 3 -13 17 -14 17 -8 1 4 -11 1 -18 -6 -18 -6 0
-9 4 -5 9 3 5 0 13 -6 17 -7 4 -9 3 -5 -4 4 -7 -1 -10 -14 -7 -11 2 -20 0 -20
-6 0 -5 5 -10 10 -10 6 -1 15 -2 21 -3 6 0 17 -10 26 -21 15 -20 15 -20 9 1
-5 15 -2 21 9 21 10 0 14 -6 10 -15 -4 -12 -1 -11 20 2 29 19 32 11 8 -18 -14
-16 -14 -18 -2 -8 9 6 20 8 24 4 5 -4 5 -1 1 6 -5 8 0 12 14 12 12 0 19 -4 16
-8 -2 -4 6 -8 19 -8 21 0 26 9 7 12 -40 8 -51 17 -42 34 8 15 6 18 -8 16 -9
-2 -20 1 -23 6 -3 5 -9 2 -12 -7 -5 -10 -3 -14 4 -9 7 4 10 2 8 -5 -7 -21 -24
-12 -24 12 -1 20 4 23 35 22 19 0 40 -4 47 -8 6 -4 14 -3 17 2 13 20 58 -2 49
-25 -5 -12 -7 -12 -19 3 -13 17 -14 17 -8 1 4 -11 1 -18 -6 -18 -6 0 -9 4 -5
9 3 5 0 13 -6 17 -7 4 -9 3 -5 -4 4 -7 -1 -10 -14 -7 -11 2 -20 0 -20 -6 0 -5
5 -10 10 -10 6 -1 15 -2 21 -3 6 0 17 -10 26 -21 15 -20 15 -20 9 1 -5 15 -2
21 9 21 10 0 14 -6 10 -15 -4 -12 -1 -11 20 2 29 19 32 11 8 -18 -14 -16 -14
-18 -2 -8 9 6 20 8 24 4 5 -4 5 -1 1 6 -5 8 0 12 14 12 12 0 19 -4 16 -9 -4
-5 1 -8 10 -7 17 3 35 26 28 37 -2 4 0 10 6 14 5 3 10 1 10 -5 0 -6 5 -8 11
-5 13 9 7 15 -20 20 -12 2 -19 0 -16 -5 3 -5 -4 -7 -15 -5 -23 4 -27 -10 -5
-19 8 -3 15 -10 15 -15 0 -5 -11 -4 -24 2 -19 9 -22 16 -15 28 7 13 5 17 -9
15 -9 -2 -20 1 -23 6 -3 5 -9 2 -12 -7 -5 -10 -3 -14 4 -9 7 4 10 2 8 -5 -8
-23 -24 -16 -24 9 -1 23 3 26 35 25 19 0 40 -4 46 -8 6 -3 14 -3 18 0 14 15
37 10 47 -9 10 -18 7 -24 -12 -41 l-24 -19 29 17 c25 15 28 16 23 2 -3 -9 -1
-19 5 -23 7 -4 8 -3 4 4 -4 7 -3 12 3 12 5 0 11 -3 14 -7 2 -5 2 -2 0 6 -2 8
2 11 11 8 7 -3 19 0 26 6 10 9 12 9 7 -4 -3 -9 0 -16 8 -16 8 0 11 7 7 16 -5
13 -3 14 9 4 11 -9 19 -9 26 -2 8 8 13 8 17 0 4 -6 2 -11 -3 -11 -6 0 -11 -5
-11 -11 0 -5 4 -8 9 -5 5 4 11 3 14 -1 2 -5 2 -3 1 4 -2 6 4 14 12 17 9 3 14
-1 14 -11 0 -9 2 -14 5 -12 4 4 7 16 14 59 1 3 5 -1 10 -9 6 -9 11 -10 15 -2
4 6 2 12 -3 12 -37 5 -46 2 -46 -10 0 -8 -6 -16 -14 -19 -8 -3 -11 0 -8 6 4 5
-1 16 -10 23 -14 12 -16 12 -8 -1 8 -13 7 -13 -10 0 -11 8 -16 10 -11 3 5 -9
2 -11 -8 -7 -10 4 -16 1 -16 -7 0 -9 -4 -7 -12 4 -17 22 -54 16 -50 -9 3 -14
1 -16 -7 -8 -6 6 -13 19 -15 30 -4 18 3 19 79 19 66 0 81 -3 73 -12 -13 -16 4
-17 20 -1 19 19 42 18 53 -4 10 -18 7 -24 -12 -41 l-24 -19 29 17 c25 15 28
16 23 2 -3 -9 -1 -19 5 -23 7 -4 8 -3 4 4 -4 7 -3 12 3 12 5 0 11 -3 14 -7 2
-5 2 -2 0 6 -2 8 2 11 11 8 7 -3 19 0 26 6 10 9 12 9 7 -4 -3 -9 0 -16 8 -16
8 0 11 7 7 16 -5 13 -3 14 9 4 11 -9 19 -9 26 -2 8 8 13 8 17 0 4 -6 2 -11 -3
-11 -6 0 -11 -5 -11 -11 0 -5 4 -8 9 -5 5 4 11 3 14 -1 2 -5 2 -3 1 4 -2 6 4
14 12 17 9 3 14 -1 14 -11 0 -9 2 -14 5 -12 4 4 7 16 14 59 1 3 5 -1 10 -9 6
-9 11 -10 15 -2 4 6 2 12 -3 12 -37 5 -46 2 -46 -10 0 -8 -6 -16 -14 -19 -8
-3 -11 0 -8 6 4 5 -1 16 -10 23 -14 12 -16 12 -8 -1 8 -13 7 -13 -10 0 -11 8
-16 10 -11 3 5 -9 2 -11 -8 -7 -10 4 -16 1 -16 -7 0 -9 -4 -7 -12 4 -17 22
-54 16 -50 -9 3 -14 1 -16 -7 -8 -6 6 -13 19 -15 30 -4 18 3 19 79 19 66 0 81
-3 73 -12 -13 -16 4 -17 20 -1 19 19 42 18 53 -4 10 -18 7 -24 -12 -41 l-24
-19 29 17 c25 15 28 16 23 2 -3 -9 -1 -19 5 -23 7 -4 8 -3 4 4 -4 7 -3 12 3
12 5 0 11 -3 14 -7 2 -5 2 -2 0 6 -2 8 2 11 11 8 7 -3 19 0 26 6 10 9 12 9 7
-4 -3 -9 0 -16 8 -16 8 0 11 7 7 16 -5 13 -3 14 9 4 11 -9 19 -9 26 -2 8 8 13
8 17 0 4 -6 2 -11 -3 -11 -6 0 -11 -5 -11 -11 0 -5 4 -8 9 -5 5 4 11 3 14 -1
2 -5 2 -3 1 4 -2 6 4 14 12 17 9 3 14 -1 14 -11 0 -9 2 -14 5 -12 4 4 7 16 14
59 1 3 5 -1 10 -9 6 -9 11 -10 15 -2 4 6 2 12 -3 12 -37 5 -46 2 -46 -10 0 -8
-6 -16 -14 -19 -8 -3 -11 0 -8 6 4 5 -1 16 -10 23 -14 12 -16 12 -8 -1 8 -13
7 -13 -10 0 -11 8 -16 10 -11 3 5 -9 2 -11 -8 -7 -10 4 -16 1 -16 -7 0 -9 -4
-7 -12 4 -17 22 -54 16 -50 -9 3 -14 1 -16 -7 -8 -6 6 -13 19 -15 30 -4 18 3
19 79 19 66 0 81 -3 73 -12 -13 -16 4 -17 20 -1 19 19 42 18 53 -4 10 -18 7
-24 -12 -41 l-24 -19 29 17 c25 15 28 16 23 2 -3 -9 -1 -19 5 -23 7 -4 8 -3 4
4 -4 7 -3 12 3 12 5 0 11 -3 14 -7 2 -5 2 -2 0 6 -2 8 2 11 11 8 7 -3 19 0 26
6 10 9 12 9 7 -4 -3 -9 0 -16 8 -16 8 0 11 7 7 16 -5 13 -3 14 9 4 11 -9 19
-9 26 -2 8 8 13 8 17 0 4 -6 2 -11 -3 -11 -6 0 -11 -5 -11 -11 0 -5 4 -8 9 -5
5 4 11 3 14 -1 2 -5 2 -3 1 4 -2 6 4 14 12 17 9 3 14 -1 14 -11 0 -9 2 -14 5
-12 4 4 7 16 14 59 1 3 5 -1 10 -9 6 -9 11 -10 15 -2 4 6 2 12 -3 12 -37 5
-46 2 -46 -10 0 -8 -6 -16 -14 -19 -8 -3 -11 0 -8 6 4 5 -1 16 -10 23 -14 12
-16 12 -8 -1 8 -13 7 -13 -10 0 -11 8 -16 10 -11 3 5 -9 2 -11 -8 -7 -10 4
-16 1 -16 -7 0 -9 -4 -7 -12 4 -17 22 -54 16 -50 -9 3 -14 1 -16 -7 -8 -6 6
-13 19 -15 30 -4 18 3 19 79 19 66 0 81 -3 73 -12 -13 -16 4 -17 20 -1 19 19
42 18 53 -4 10 -18 7 -24 -12 -41 l-24 -19 29 17 c25 15 28 16 23 2 -3 -9 -1
-19 5 -23 7 -4 8 -3 4 4 -4 7 -3 12 3 12 5 0 11 -3 14 -7 2 -5 2 -2 0 6 -2 8
2 11 11 8 7 -3 19 0 26 6 10 9 12 9 7 -4 -3 -9 0 -16 8 -16 8 0 11 7 7 16 -5
13 -3 14 9 4 11 -9 19 -9 26 -2 8 8 13 8 17 0 4 -6 2 -11 -3 -11 -6 0 -11 -5
-11 -11 0 -5 4 -8 9 -5 5 4 11 3 14 -1 2 -5 2 -3 1 4 -2 6 4 14 12 17 9 3 14
-1 14 -11 0 -9 2 -14 5 -12 4 4 7 16 14 59 1 3 5 -1 10 -9 6 -9 11 -10 15 -2
4 6 2 12 -3 12 -37 5 -46 2 -46 -10 0 -8 -6 -16 -14 -19 -8 -3 -11 0 -8 6 4 5
-1 16 -10 23 -14 12 -16 12 -8 -1 8 -13 7 -13 -10 0 -11 8 -16 10 -11 3 5 -9
2 -11 -8 -7 -10 4 -16 1 -16 -7 0 -9 -4 -7 -12 4 -17 22 -54 16 -50 -9 3 -14
1 -16 -7 -8 -6 6 -13 19 -15 30 -4 18 3 19 79 19 66 0 81 -3 73 -12 -13 -16 4
-17 20 -1 19 19 42 18 53 -4 10 -18 7 -24 -12 -41 l-24 -19 29 17 c25 15 28
16 23 2 -3 -9 -1 -19 5 -23 7 -4 8 -3 4 4 -4 7 -3 12 3 12 5 0 11 -3 14 -7 2
-5 2 -2 0 6 -2 8 2 11 11 8 7 -3 19 0 26 6 10 9 12 9 7 -4 -3 -9 0 -16 8 -16
8 0 11 7 7 16 -5 13 -3 14 9 4 11 -9 19 -9 26 -2 8 8 13 8 17 0 4 -6 2 -11 -3
-11 -6 0 -11 -5 -11 -11 0 -5 4 -8 9 -5 5 4 11 3 14 -1 2 -5 2 -3 1 4 -2 6 4
14 12 17 9 3 14 -1 14 -11 0 -9 2 -14 5 -12 4 4 7 16 14 59 1 3 5 -1 10 -9 6
-9 11 -10 15 -2 4 6 2 12 -3 12 -37 5 -46 2 -46 -10 0 -8 -6 -16 -14 -19 -8
-3 -11 0 -8 6 4 5 -1 16 -10 23 -14 12 -16 12 -8 -1 8 -13 7 -13 -10 0 -11 8
-16 10 -11 3 5 -9 2 -11 -8 -7 -10 4 -16 1 -16 -7 0 -9 -4 -7 -12 4 -17 22
-54 16 -50 -9 3 -14 1 -16 -7 -8 -6 6 -13 19 -15 30 -4 18 3 19 79 19 66 0 81
-3 73 -12 -13 -16 4 -17 20 -1 19 19 42 18 53 -4 10 -18 7 -24 -12 -41 l-24
-19 29 17 c25 15 28 16 23 2 -3 -9 -1 -19 5 -23 7 -4 8 -3 4 4 -4 7 -3 12 3
12 5 0 11 -3 14 -7 2 -5 2 -2 0 6 -2 8 2 11 11 8 7 -3 19 0 26 6 10 9 12 9 7
-4 -3 -9 0 -16 8 -16 8 0 11 7 7 16 -5 13 -3 14 9 4 11 -9 19 -9 26 -2 8 8 13
8 17 0 4 -6 2 -11 -3 -11 -6 0 -11 -5 -11 -11 0 -5 4 -8 9 -5 5 4 11 3 14 -1
2 -5 2 -3 1 4 -2 6 4 14 12 17 9 3 14 -1 14 -11 0 -9 2 -14 5 -12 4 4 7 16 14
59 1 3 5 -1 10 -9 6 -9 11 -10 15 -2 4 6 2 12 -3 12 -37 5 -46 2 -46 -10 0 -8
-6 -16 -14 -19 -8 -3 -11 0 -8 6 4 5 -1 16 -10 23 -14 12 -16 12 -8 -1 8 -13
7 -13 -10 0 -11 8 -16 10 -11 3 5 -9 2 -11 -8 -7 -10 4 -16 1 -16 -7 0 -9 -4
-7 -12 4 -17 22 -54 16 -50 -9 3 -14 1 -16 -7 -8 -6 6 -13 19 -15 30 -4 18 3
19 79 19 66 0 81 -3 73 -12 -13 -16 4 -17 20 -1 19 19 42 18 53 -4 10 -18 7
-24 -12 -41 l-24 -19 29 17 c25 15 28 16 23 2 -3 -9 -1 -19 5 -23 7 -4 8 -3 4
4 -4 7 -3 12 3 12 5 0 11 -3 14 -7 2 -5 2 -2 0 6 -2 8 2 11 11 8 7 -3 19 0 26
6 10 9 12 9 7 -4 -3 -9 0 -16 8 -16 8 0 11 7 7 16 -5 13 -3 14 9 4 11 -9 19
-9 26 -2 8 8 13 8 17 0 4 -6 2 -11 -3 -11 -6 0 -11 -5 -11 -11 0 -5 4 -8 9 -5
5 4 11 3 14 -1 2 -5 2 -3 1 4 -2 6 4 14 12 17 9 3 14 -1 14 -11 0 -9 2 -14 5
-12 4 4 7 16 14 59 1 3 5 -1 10 -9 6 -9 11 -10 15 -2 4 6 2 12 -3 12 -37 5
-46 2 -46 -10 0 -8 -6 -16 -14 -19 -8 -3 -11 0 -8 6 4 5 -1 16 -10 23 -14 12
-16 12 -8 -1 8 -13 7 -13 -10 0 -11 8 -16 10 -11 3 5 -9 2 -11 -8 -7 -10 4
-16 1 -16 -7 0 -9 -4 -7 -12 4 -17 22 -54 16 -50 -9 3 -14 1 -16 -7 -8 -6 6
-13 19 -15 30 -4 18 3 19 79 19 66 0 81 -3 73 -12 -13 -16 4 -17 20 -1 19 19
42 18 53 -4 10 -18 7 -24 -12 -41 l-24 -19 29 17 c25 15 28 16 23 2 -3 -9 -1
-19 5 -23 7 -4 8 -3 4 4 -4 7 -3 12 3 12 5 0 11 -3 14 -7 2 -5 2 -2 0 6 -2 8
2 11 11 8 7 -3 19 0 26 6 10 9 12 9 7 -4 -3 -9 0 -16 8 -16 8 0 11 7 7 16 -5
13 -3 14 9 4 11 -9 19 -9 26 -2 8 8 13 8 17 0 4 -6 2 -11 -3 -11 -6 0 -11 -5
-11 -11 0 -5 4 -8 9 -5 5 4 11 3 14 -1 2 -5 2 -3 1 4 -2 6 4 14 12 17 9 3 14
-1 14 -11 0 -9 2 -14 5 -12 4 4 7 16 14 59 1 3 5 -1 10 -9 6 -9 11 -10 15 -2
4 6 2 12 -3 12 -37 5 -46 2 -46 -10 0 -8 -6 -16 -14 -19 -8 -3 -11 0 -8 6 4 5
-1 16 -10 23 -14 12 -16 12 -8 -1 8 -13 7 -13 -10 0 -11 8 -16 10 -11 3 5 -9
2 -11 -8 -7 -10 4 -16 1 -16 -7 0 -9 -4 -7 -12 4 -17 22 -54 16 -50 -9 3 -14
1 -16 -7 -8 -6 6 -13 19 -15 30 -4 18 3 19 79 19 66 0 81 -3 73 -12 -13 -16 4
-17 20 -1 19 19 42 18 53 -4 10 -18 7 -24 -12 -41 l-24 -19 29 17 c25 15 28
16 23 2 -3 -9 -1 -19 5 -23 7 -4 8 -3 4 4 -4 7 -3 12 3 12 5 0 11 -3 14 -7 2
-5 2 -2 0 6 -2 8 2 11 11 8 7 -3 19 0 26 6 10 9 12 9 7 -4 -3 -9 0 -16 8 -16
8 0 11 7 7 16 -5 13 -3 14 9 4 11 -9 19 -9 26 -2 8 8 13 8 17 0 4 -6 2 -11 -3
-11 -6 0 -11 -5 -11 -11 0 -5 4 -8 9 -5 5 4 11 3 14 -1 2 -5 2 -3 1 4 -2 6 4
14 12 17 9 3 14 -1 14 -11 0 -9 2 -14 5 -12 4 4 7 16 14 59 1 3 5 -1 10 -9 6
-9 11 -10 15 -2 4 6 2 12 -3 12 -37 5 -46 2 -46 -10 0 -8 -6 -16 -14 -19 -8
-3 -11 0 -8 6 4 5 -1 16 -10 23 -14 12 -16 12 -8 -1 8 -13 7 -13 -10 0 -11 8
-16 10 -11 3 5 -9 2 -11 -8 -7 -10 4 -16 1 -16 -7 0 -9 -4 -7 -12 4 -17 22
-54 16 -50 -9 3 -14 1 -16 -7 -8 -6 6 -13 19 -15 30 -4 18 3 19 79 19 66 0 81
-3 73 -12 -13 -16 4 -17 20 -1 19 19 42 18 53 -4 10 -18 7 -24 -12 -41 l-24
-19 29 17 c25 15 28 16 23 2 -3 -9 -1 -19 5 -23 6 -4 8 -3 4 4 -3 6 -2 13 3
16 5 4 12 -2 14 -11 4 -17 5 -17 6 0 1 15 5 16 24 7 18 -9 20 -9 7 2 -17 15
-24 38 -12 38 5 0 15 -11 22 -24 7 -14 20 -28 28 -31 12 -5 12 -1 -3 15 -10
11 -13 20 -7 20 6 0 18 -10 27 -22 16 -22 17 -22 11 -2 -5 15 -2 21 9 21 10 0
14 -6 10 -15 -4 -12 -1 -11 20 2 29 19 32 11 8 -18 -14 -16 -14 -18 -2 -8 9 6
20 8 24 4 5 -4 5 -1 1 6 -5 8 0 12 14 12 12 0 19 -4 16 -8 -2 -4 6 -8 19 -8
21 0 26 9 7 12 -40 8 -51 17 -42 34 8 15 6 18 -8 16 -9 -2 -20 1 -23 6 -3 5
-9 2 -12 -7 -5 -10 -3 -14 4 -9 7 4 10 2 8 -5 -8 -23 -24 -16 -24 9 -1 23 3
26 35 25 19 0 40 -4 47 -8 6 -4 14 -3 17 2 13 20 58 -2 49 -25 -5 -12 -7 -12
-19 3 -13 17 -14 17 -8 1 4 -11 1 -18 -6 -18 -6 0 -9 4 -5 9 3 5 0 13 -6 17
-7 4 -9 3 -5 -4 4 -7 -1 -10 -14 -7 -11 2 -20 0 -20 -6 0 -5 5 -10 10 -10 6
-1 15 -2 21 -3 6 0 17 -10 26 -21 15 -20 15 -20 9 1 -5 15 -2 21 9 21 10 0 14
-6 10 -15 -4 -12 -1 -11 20 2 29 19 32 11 8 -18 -14 -16 -14 -18 -2 -8 9 6 20
8 24 4 5 -4 5 -1 1 6 -5 8 0 12 14 12 14 0 19 -4 14 -12 -4 -7 -4 -10 1 -6 4
4 15 2 24 -4 10 -8 9 -4 -3 10 -11 12 -25 22 -33 22 -10 0 -11 5 -3 19 8 16 7
19 -8 17 -9 -2 -20 1 -23 6 -3 5 -9 2 -12 -7 -5 -10 -3 -14 4 -9 7 4 10 2 8
-5 -8 -23 -24 -16 -24 9 -1 24 2 25 49 25 45 0 54 3 81 34 16 19 29 38 28 42
-2 5 3 6 11 3 8 -3 20 4 28 15 8 12 19 18 24 13 5 -4 1 2 -8 14 -14 15 -15 23
-6 32 9 9 7 16 -7 32 -13 15 -16 23 -8 31 13 13 6 39 -9 39 -5 0 -6 -4 -3 -10
3 -5 0 -10 -7 -10 -9 0 -9 -3 2 -10 8 -5 10 -10 4 -10 -18 0 -23 11 -14 35 5
13 6 26 2 29 -12 12 -10 35 4 47 9 7 14 8 14 1 0 -6 -6 -12 -13 -15 -6 -2 0
-4 16 -4 15 0 30 3 33 8 3 5 -3 6 -12 2 -12 -4 -15 -3 -10 5 4 7 2 12 -6 12
-9 0 -9 3 2 10 19 12 4 13 -19 1 -14 -8 -17 -5 -17 17 1 15 5 33 9 40 6 8 4
12 -5 10 -7 -2 -12 3 -11 9 2 7 0 12 -5 11 -4 -1 -19 6 -35 16 -26 18 -109 19
-2366 20 -1286 0 -2353 -2 -2372 -5z m4822 -313 c-8 -10 -9 -16 -1 -21 7 -4 7
-12 -1 -27 -16 -29 -32 -8 -34 44 -2 57 3 64 28 40 16 -17 18 -24 8 -36z
m-4443 -163 c-13 -16 4 -17 20 -1 19 19 42 18 53 -4 10 -18 8 -24 -12 -39 -21
-15 -25 -16 -32 -3 -5 8 -13 12 -18 8 -5 -3 -16 -1 -24 6 -9 8 -15 8 -20 0 -3
-6 -11 -8 -16 -4 -5 3 -7 10 -4 15 4 5 1 9 -4 9 -6 0 -11 -5 -11 -12 0 -7 -5
-5 -12 5 -12 16 -40 18 -54 4 -4 -3 5 -4 20 -1 14 2 26 1 26 -4 0 -16 -13 -22
-27 -11 -10 9 -13 8 -13 -2 0 -19 -20 3 -24 27 -4 18 3 19 79 19 66 0 81 -3
73 -12z m169 4 c6 -4 14 -3 17 2 13 20 58 -2 49 -25 -5 -12 -7 -12 -19 3 -13
17 -14 17 -7 -1 5 -15 3 -18 -9 -14 -9 4 -21 1 -27 -5 -8 -8 -16 -7 -28 6 -12
11 -13 17 -5 17 7 0 10 5 6 11 -4 8 -12 2 -21 -16 -16 -29 -30 -24 -37 11 -3
17 1 20 32 19 21 0 42 -4 49 -8z m3830 0 c-1 -5 7 -13 19 -17 14 -6 21 -4 21
5 0 7 -6 11 -14 8 -7 -3 -13 -1 -13 4 0 11 39 11 57 0 7 -4 10 -14 6 -23 -5
-12 -7 -12 -19 3 -13 17 -14 17 -8 0 5 -13 1 -17 -17 -15 -13 2 -29 9 -35 17
-11 15 -38 6 -29 -9 3 -5 2 -11 -3 -14 -12 -7 -32 8 -36 30 -3 16 2 19 34 19
21 0 38 -4 37 -8z m-4269 -26 c2 -1 0 -6 -3 -11 -5 -8 -11 -8 -19 -1 -7 6 -17
7 -21 3 -5 -4 -5 -2 -2 5 6 9 18 10 45 4z m1862 -1 c0 -16 -17 -20 -28 -7 -8
10 -6 13 9 14 10 1 19 -2 19 -7z m240 0 c0 -16 -17 -20 -28 -7 -8 10 -6 13 9
14 10 1 19 -2 19 -7z m240 0 c0 -16 -17 -20 -28 -7 -8 10 -6 13 9 14 10 1 19
-2 19 -7z m240 0 c0 -16 -17 -20 -28 -7 -8 10 -6 13 9 14 10 1 19 -2 19 -7z
m240 0 c0 -16 -17 -20 -28 -7 -8 10 -6 13 9 14 10 1 19 -2 19 -7z m240 0 c0
-16 -17 -20 -28 -7 -8 10 -6 13 9 14 10 1 19 -2 19 -7z m240 0 c0 -16 -17 -20
-28 -7 -8 10 -6 13 9 14 10 1 19 -2 19 -7z m240 0 c0 -16 -17 -20 -28 -7 -8
10 -6 13 9 14 10 1 19 -2 19 -7z m240 0 c0 -16 -17 -20 -28 -7 -8 10 -6 13 9
14 10 1 19 -2 19 -7z m240 0 c0 -16 -17 -20 -28 -7 -8 10 -6 13 9 14 10 1 19
-2 19 -7z m-2100 -6 c0 -8 -19 -13 -24 -6 -3 5 1 9 9 9 8 0 15 -2 15 -3z m240
0 c0 -8 -19 -13 -24 -6 -3 5 1 9 9 9 8 0 15 -2 15 -3z m240 0 c0 -8 -19 -13
-24 -6 -3 5 1 9 9 9 8 0 15 -2 15 -3z m240 0 c0 -8 -19 -13 -24 -6 -3 5 1 9 9
9 8 0 15 -2 15 -3z m240 0 c0 -8 -19 -13 -24 -6 -3 5 1 9 9 9 8 0 15 -2 15 -3z
m240 0 c0 -8 -19 -13 -24 -6 -3 5 1 9 9 9 8 0 15 -2 15 -3z m240 0 c0 -8 -19
-13 -24 -6 -3 5 1 9 9 9 8 0 15 -2 15 -3z m240 0 c0 -8 -19 -13 -24 -6 -3 5 1
9 9 9 8 0 15 -2 15 -3z m240 0 c0 -8 -19 -13 -24 -6 -3 5 1 9 9 9 8 0 15 -2
15 -3z m240 0 c0 -8 -19 -13 -24 -6 -3 5 1 9 9 9 8 0 15 -2 15 -3z"/>
<path d="M6794 5965 c0 -27 11 -33 19 -11 3 8 0 19 -7 25 -9 8 -12 4 -12 -14z"/>
<path d="M6796 5921 c-4 -5 -2 -12 3 -15 5 -4 12 -2 15 3 4 5 2 12 -3 15 -5 4
-12 2 -15 -3z"/>
<path d="M2296 5778 c3 -5 10 -6 15 -3 13 9 11 12 -6 12 -8 0 -12 -4 -9 -9z"/>
<path d="M2339 5786 c0 -1 -2 -9 -4 -19 -3 -13 0 -15 9 -8 9 7 17 7 26 -2 12
-10 12 -9 2 4 -6 9 -10 18 -7 21 3 2 -2 5 -10 5 -8 0 -15 -1 -16 -1z"/>
<path d="M2400 5775 c-7 -9 -5 -16 5 -25 9 -8 15 -9 14 -4 -3 20 2 28 10 15 6
-9 11 -10 15 -2 4 6 2 11 -4 11 -6 0 -9 4 -6 8 8 13 -23 10 -34 -3z"/>
<path d="M2476 5782 c-2 -4 -1 -14 3 -21 6 -10 10 -9 14 3 6 16 -8 32 -17 18z"/>
<path d="M2533 5770 c-2 -21 12 -27 22 -10 4 6 10 8 14 6 4 -3 8 1 8 9 0 10
-4 12 -12 5 -7 -6 -15 -6 -21 0 -6 6 -10 3 -11 -10z"/>
<path d="M6335 5780 c-4 -6 -11 -8 -16 -5 -16 10 -10 -2 9 -16 9 -7 14 -9 10
-5 -4 5 -3 15 3 23 6 7 9 13 6 13 -3 0 -9 -5 -12 -10z"/>
<path d="M6793 6165 c0 -7 6 -11 14 -8 7 3 13 6 13 8 0 2 -6 5 -13 8 -8 3 -14
-1 -14 -8z"/>
<path d="M6802 6073 c14 -17 28 -16 28 1 0 8 -9 14 -19 13 -15 -1 -17 -4 -9
-14z"/>
<path d="M6835 6040 c3 -5 8 -10 11 -10 2 0 4 5 4 10 0 6 -5 10 -11 10 -5 0
-7 -4 -4 -10z"/>
<path d="M6835 6009 c-4 -6 -5 -12 -2 -15 2 -3 7 2 10 11 7 17 1 20 -8 4z"/>
<path d="M6846 5878 c3 -4 9 -8 15 -8 5 0 9 4 9 8 0 5 -7 9 -15 9 -8 0 -12 -4
-9 -9z"/>
<path d="M6775 5839 c-19 -17 -32 -35 -29 -40 3 -5 0 -9 -6 -9 -7 0 -10 -7 -7
-14 4 -10 1 -13 -8 -9 -8 3 -13 8 -10 12 2 4 -2 8 -8 8 -13 0 -21 -36 -9 -38
50 -8 72 -5 72 10 1 13 3 13 15 -3 8 -11 15 -14 15 -8 0 7 4 12 10 12 5 0 7
-8 4 -17 -5 -15 -4 -16 5 -3 8 11 7 18 -4 26 -17 12 -21 29 -5 19 6 -4 7 1 3
12 -6 15 -4 16 8 6 12 -10 17 -8 29 10 12 20 12 21 -4 8 -14 -12 -19 -11 -36
4 -23 21 -18 34 5 15 12 -10 18 -11 28 -1 9 10 8 11 -6 5 -13 -5 -16 -2 -11
10 10 25 -12 19 -51 -15z m24 -40 c-5 -11 -7 -25 -3 -32 5 -8 2 -7 -9 2 -14
11 -18 11 -23 -4 -5 -13 -9 -14 -15 -4 -4 7 -3 19 3 26 6 7 7 13 3 13 -5 0 0
9 10 20 23 26 51 9 34 -21z m-74 -47 c-3 -3 -11 0 -18 7 -9 10 -8 11 6 5 10
-3 15 -9 12 -12z"/>
<path d="M6769 5813 c-8 -9 -9 -14 -2 -10 6 4 13 2 15 -5 3 -8 7 -6 11 5 9 23
-8 30 -24 10z"/>
<path d="M1915 5801 c-3 -5 -2 -12 3 -15 5 -3 9 1 9 9 0 17 -3 19 -12 6z"/>
<path d="M3976 5778 c3 -5 10 -6 15 -3 13 9 11 12 -6 12 -8 0 -12 -4 -9 -9z"/>
<path d="M4216 5778 c3 -5 10 -6 15 -3 13 9 11 12 -6 12 -8 0 -12 -4 -9 -9z"/>
<path d="M4456 5778 c3 -5 10 -6 15 -3 13 9 11 12 -6 12 -8 0 -12 -4 -9 -9z"/>
<path d="M4696 5778 c3 -5 10 -6 15 -3 13 9 11 12 -6 12 -8 0 -12 -4 -9 -9z"/>
<path d="M4936 5778 c3 -5 10 -6 15 -3 13 9 11 12 -6 12 -8 0 -12 -4 -9 -9z"/>
<path d="M5176 5778 c3 -5 10 -6 15 -3 13 9 11 12 -6 12 -8 0 -12 -4 -9 -9z"/>
<path d="M5416 5778 c3 -5 10 -6 15 -3 13 9 11 12 -6 12 -8 0 -12 -4 -9 -9z"/>
<path d="M5656 5778 c3 -5 10 -6 15 -3 13 9 11 12 -6 12 -8 0 -12 -4 -9 -9z"/>
<path d="M5896 5778 c3 -5 10 -6 15 -3 13 9 11 12 -6 12 -8 0 -12 -4 -9 -9z"/>
<path d="M6136 5778 c3 -5 10 -6 15 -3 13 9 11 12 -6 12 -8 0 -12 -4 -9 -9z"/>
<path d="M2030 5739 c0 -5 5 -7 10 -4 6 3 10 8 10 11 0 2 -4 4 -10 4 -5 0 -10
-5 -10 -11z"/>
<path d="M6735 5720 c3 -5 8 -10 11 -10 2 0 4 5 4 10 0 6 -5 10 -11 10 -5 0
-7 -4 -4 -10z"/>
<path d="M324 4378 l1 -633 621 -3 621 -2 0 355 c0 195 -4 355 -9 356 -4 0
-28 1 -53 1 -25 0 -56 -1 -70 -1 l-25 -1 0 -275 0 -275 -465 0 -465 0 0 38
c-1 20 -1 233 -1 472 l-1 435 311 3 311 2 0 80 0 80 -388 0 -388 0 0 -632z"/>
<path d="M1215 4795 c-131 -138 -312 -319 -322 -322 -5 -2 -42 31 -83 72 l-75
75 -88 -91 c-87 -89 -88 -91 -70 -111 10 -12 84 -89 166 -172 l147 -151 146
150 c80 83 215 220 300 305 l154 155 -91 93 c-49 50 -91 92 -92 92 -1 -1 -42
-43 -92 -95z"/>
<path d="M1959 4595 c-53 -29 -58 -49 -56 -221 1 -88 4 -165 7 -173 8 -21 32
-45 60 -57 27 -11 275 -12 286 -1 4 3 14 3 23 -2 9 -4 181 -7 384 -6 293 1
367 -2 367 -12 0 -7 -4 -13 -10 -13 -5 0 -10 6 -10 13 0 9 -3 8 -9 -2 -5 -7
-11 -9 -14 -4 -5 8 -52 10 -52 3 0 -2 -12 -3 -27 -4 -15 -1 -24 2 -22 6 3 4 0
8 -6 8 -7 0 -10 -7 -6 -17 6 -17 5 -17 -8 0 -11 14 -15 15 -20 5 -5 -10 -7
-10 -12 0 -4 8 -11 6 -24 -10 l-17 -22 -8 23 c-6 18 -9 21 -16 10 -8 -12 -11
-12 -19 1 -6 10 -10 11 -10 3 0 -25 2 -28 17 -25 8 2 13 -1 10 -5 -3 -5 -1
-15 5 -23 8 -12 9 -11 4 3 -5 15 -2 17 14 12 13 -4 20 -2 20 7 1 8 7 5 17 -7
12 -15 14 -16 10 -3 -4 12 -1 16 14 15 17 -1 23 -9 21 -28 -1 -3 5 -6 13 -6 8
0 12 4 9 8 -2 4 0 10 6 14 5 3 10 1 10 -4 0 -17 19 -13 52 10 28 21 30 21 24
3 -4 -14 1 -22 22 -31 l27 -13 -24 20 c-15 13 -18 20 -9 20 8 0 19 -5 26 -12
7 -7 12 -9 12 -5 0 4 10 3 21 -4 15 -8 19 -8 15 0 -5 7 1 10 16 8 16 -1 22 3
20 14 -1 9 5 16 13 16 9 0 14 -6 11 -13 -3 -8 3 -10 17 -7 18 4 20 3 7 -7 -13
-10 -13 -11 2 -7 9 3 19 1 22 -6 3 -9 5 -9 5 0 1 6 -3 15 -9 18 -5 3 -10 11
-10 17 0 7 4 7 13 -1 8 -6 18 -7 22 -3 5 4 5 -2 1 -12 -5 -15 -4 -17 7 -8 8 7
17 9 21 5 4 -4 4 -1 1 8 -4 10 1 15 16 16 17 2 19 -1 10 -10 -16 -16 -14 -30
5 -23 12 5 15 2 10 -11 -6 -14 -5 -15 5 -6 9 10 10 15 0 27 -7 8 -8 17 -3 20
11 7 26 -21 24 -44 -1 -10 0 -11 4 -2 3 6 11 9 17 5 7 -4 5 2 -3 12 -14 17
-13 18 2 12 10 -3 17 -3 17 1 -3 19 2 25 10 13 6 -9 6 -23 0 -35 -9 -18 -8
-19 3 -5 7 9 19 14 26 12 6 -3 12 -1 12 4 0 5 9 9 20 10 18 2 25 -8 21 -29 0
-5 4 -8 10 -8 6 0 8 8 4 19 -3 11 1 24 11 32 15 12 16 12 11 -6 -5 -15 0 -23
21 -32 l27 -13 -24 20 c-17 15 -19 20 -8 20 9 0 19 -5 23 -12 5 -8 10 -7 18 3
12 15 52 26 43 12 -3 -5 -1 -15 5 -23 8 -12 9 -11 4 3 -5 15 -2 17 14 12 13
-4 20 -2 20 7 1 8 7 5 17 -7 13 -17 15 -17 10 -2 -5 12 -2 17 8 15 13 -3 15 0
15 25 0 8 -4 7 -11 -3 -8 -11 -12 -12 -16 -2 -3 8 -10 5 -23 -10 l-17 -22 -8
23 c-6 18 -9 21 -16 10 -8 -12 -11 -12 -19 1 -6 9 -10 11 -10 3 0 -7 -10 -17
-21 -24 -17 -9 -20 -8 -14 2 6 9 3 11 -8 6 -9 -3 -19 -2 -22 4 -4 5 -11 7 -16
4 -5 -4 -9 -1 -9 6 0 7 -7 4 -15 -7 -15 -19 -15 -19 -9 1 4 15 3 16 -4 6 -7
-9 -11 -10 -17 -2 -5 9 -10 9 -21 0 -11 -9 -14 -8 -14 2 0 11 -2 11 -10 -1 -8
-13 -10 -13 -10 -1 0 11 -3 10 -13 -3 -11 -15 -17 -17 -35 -7 -12 6 -22 9 -22
6 0 -3 -9 -1 -19 5 -14 7 -22 7 -27 -1 -4 -8 -9 -7 -15 2 -7 12 -9 12 -9 0 0
-10 -3 -11 -14 -2 -11 9 -16 9 -21 0 -6 -8 -10 -7 -16 2 -5 8 -9 9 -9 3 0 -7
-13 -10 -30 -9 -16 1 -28 0 -26 -4 3 -4 -4 -7 -14 -7 -10 0 -17 4 -14 7 2 4
-1 11 -7 15 -7 4 -9 3 -6 -2 3 -6 2 -16 -2 -23 -5 -7 -11 -9 -14 -4 -4 5 1 19
9 31 11 16 20 20 32 14 9 -5 56 -8 105 -7 49 0 87 -3 87 -9 0 -5 8 -2 18 7 10
10 22 14 26 10 10 -10 156 -11 162 -1 3 4 13 4 22 0 9 -4 124 -8 255 -7 197 0
237 -2 237 -13 0 -12 -3 -12 -15 -2 -12 10 -15 10 -15 0 0 -10 -3 -10 -15 0
-12 10 -15 10 -15 0 0 -10 -3 -10 -14 -1 -11 9 -16 9 -21 0 -6 -8 -10 -7 -16
2 -5 8 -9 9 -9 3 0 -6 -7 -11 -15 -11 -8 0 -12 4 -9 9 3 4 0 8 -6 8 -7 0 -10
-7 -6 -17 6 -17 5 -17 -8 0 -11 14 -15 15 -20 5 -5 -10 -7 -10 -12 0 -4 8 -11
6 -24 -10 l-17 -22 -8 23 c-6 18 -9 21 -16 10 -8 -12 -11 -12 -19 1 -6 10 -10
11 -10 3 0 -25 2 -28 17 -25 8 2 13 -1 10 -5 -3 -5 -1 -15 5 -23 8 -12 9 -11
4 3 -5 15 -2 17 14 12 13 -4 20 -2 20 7 1 8 7 5 17 -7 12 -15 14 -16 10 -3 -4
12 -1 16 14 15 10 -1 19 -5 19 -10 0 -4 5 -5 10 -2 6 3 10 2 10 -3 0 -12 70
-10 89 2 11 7 13 5 8 -7 -7 -19 17 -13 46 11 20 17 23 3 5 -18 -7 -8 -4 -7 8
3 11 9 24 14 29 10 4 -5 2 3 -5 17 -16 32 -25 41 -16 15 6 -16 5 -17 -5 -8
-17 17 7 46 30 34 9 -4 55 -7 104 -6 49 0 87 -3 87 -9 0 -5 8 -2 18 7 10 9 23
13 30 8 15 -9 133 -8 149 2 6 4 14 4 16 0 3 -5 118 -8 256 -8 198 1 251 -2
251 -12 0 -7 -4 -13 -10 -13 -5 0 -10 6 -10 13 0 9 -3 8 -9 -2 -5 -7 -11 -9
-14 -4 -5 8 -52 10 -52 3 0 -2 -12 -3 -27 -4 -15 -1 -24 2 -22 6 3 4 0 8 -6 8
-7 0 -10 -7 -6 -17 6 -17 5 -17 -8 0 -11 14 -15 15 -20 5 -5 -10 -7 -10 -12 0
-4 8 -11 6 -24 -10 l-17 -22 -8 23 c-6 18 -9 21 -16 10 -8 -12 -11 -12 -19 1
-6 10 -10 11 -10 3 0 -25 2 -28 17 -25 8 2 13 -1 10 -5 -3 -5 -1 -15 5 -23 8
-12 9 -11 4 3 -5 15 -2 17 14 12 13 -4 20 -2 20 7 1 8 7 5 17 -7 12 -15 14
-16 10 -3 -4 12 -1 16 14 15 17 -1 23 -9 21 -28 -1 -3 5 -6 13 -6 8 0 12 4 9
8 -2 4 0 10 6 14 5 3 10 1 10 -4 0 -17 19 -13 52 10 28 21 30 21 24 3 -4 -14
1 -22 22 -31 l27 -13 -24 20 c-15 13 -18 20 -9 20 8 0 19 -5 26 -12 7 -7 12
-9 12 -5 0 4 10 3 21 -4 15 -8 19 -8 15 0 -5 7 1 10 16 8 16 -1 22 3 20 14 -1
9 5 16 13 16 9 0 14 -6 11 -13 -3 -8 3 -10 17 -7 18 4 20 3 7 -7 -13 -10 -13
-11 2 -7 9 3 19 1 22 -6 3 -9 5 -9 5 0 1 6 -3 15 -9 18 -5 3 -10 11 -10 17 0
7 4 7 13 -1 8 -6 18 -7 22 -3 5 4 5 -2 1 -12 -5 -15 -4 -17 7 -8 8 7 17 9 21
5 4 -4 4 -1 1 8 -4 10 1 15 16 16 17 2 19 -1 10 -10 -16 -16 -14 -30 5 -23 12
5 15 2 10 -11 -6 -14 -5 -15 5 -6 9 10 10 15 0 27 -7 8 -8 17 -3 20 11 7 26
-21 24 -44 -1 -10 0 -11 4 -2 3 6 11 9 17 5 7 -4 5 2 -3 12 -14 17 -13 18 2
12 10 -3 17 -3 17 1 -3 19 2 25 10 13 6 -9 6 -23 0 -35 -9 -18 -8 -19 3 -5 7
9 19 14 26 12 6 -3 12 -1 12 4 0 5 9 9 20 10 18 2 25 -8 21 -29 0 -5 4 -8 10
-8 6 0 8 8 4 19 -3 11 1 24 11 32 15 12 16 12 11 -6 -5 -15 0 -23 21 -32 l27
-13 -24 20 c-17 15 -19 20 -8 20 9 0 19 -5 23 -12 5 -8 10 -7 18 3 12 15 52
26 43 12 -3 -5 -1 -15 5 -23 8 -12 9 -11 4 3 -5 15 -2 17 14 12 13 -4 20 -2
20 7 1 8 7 5 17 -7 13 -17 15 -17 10 -2 -4 11 -2 17 6 15 13 -3 17 3 17 25 0
8 -4 7 -11 -3 -8 -11 -12 -12 -16 -2 -3 8 -10 5 -23 -10 l-17 -22 -8 23 c-6
18 -9 21 -16 10 -8 -12 -11 -12 -19 1 -6 9 -10 11 -10 3 0 -7 -10 -17 -21 -24
-17 -9 -20 -8 -14 2 6 9 3 11 -8 6 -9 -3 -19 -2 -22 4 -4 5 -11 7 -16 4 -5 -4
-9 -1 -9 6 0 7 -7 4 -15 -7 -15 -19 -15 -19 -9 1 4 15 3 16 -4 6 -7 -9 -11
-10 -17 -2 -5 9 -10 9 -21 0 -11 -9 -14 -8 -14 2 0 11 -2 11 -10 -1 -8 -13
-10 -13 -10 -1 0 11 -3 10 -13 -3 -11 -15 -17 -17 -35 -7 -12 6 -22 9 -22 6 0
-3 -9 -1 -19 5 -14 7 -22 7 -27 -1 -4 -8 -9 -7 -15 2 -7 12 -9 12 -9 0 0 -10
-3 -11 -14 -2 -11 9 -16 9 -21 0 -6 -8 -10 -7 -16 2 -5 8 -9 9 -9 3 0 -7 -13
-10 -30 -9 -16 1 -28 0 -26 -4 3 -4 -4 -7 -14 -7 -10 0 -17 4 -14 7 2 4 -1 11
-7 15 -7 4 -9 3 -6 -2 3 -6 2 -16 -2 -23 -5 -7 -11 -9 -14 -4 -4 5 1 19 9 31
11 16 20 20 32 14 9 -5 56 -8 105 -7 49 0 87 -3 87 -9 0 -5 8 -2 18 7 10 10
22 14 26 10 10 -10 156 -11 162 -1 3 4 13 4 22 0 9 -4 124 -8 255 -7 197 0
237 -2 237 -13 0 -12 -3 -12 -15 -2 -12 10 -15 10 -15 0 0 -10 -3 -10 -15 0
-12 10 -15 10 -15 0 0 -10 -3 -10 -14 -1 -11 9 -16 9 -21 0 -6 -8 -10 -7 -16
2 -5 8 -9 9 -9 3 0 -6 -7 -11 -15 -11 -8 0 -12 4 -9 9 3 4 0 8 -6 8 -7 0 -10
-7 -6 -17 6 -17 5 -17 -8 0 -11 14 -15 15 -20 5 -5 -10 -7 -10 -12 0 -4 8 -11
6 -24 -10 l-17 -22 -8 23 c-6 18 -9 21 -16 10 -8 -12 -11 -12 -19 1 -6 10 -10
11 -10 3 0 -22 4 -28 18 -25 8 2 12 -1 9 -5 -3 -5 -1 -15 5 -23 8 -12 9 -11 4
3 -5 15 -2 17 14 12 13 -4 20 -2 20 7 1 8 7 5 17 -7 12 -15 14 -16 10 -3 -4
12 -1 16 14 15 10 -1 19 -5 19 -10 0 -4 5 -5 10 -2 6 3 10 2 10 -3 0 -12 70
-10 89 2 11 7 13 5 8 -7 -7 -19 17 -13 46 11 20 17 23 3 5 -18 -7 -8 -4 -7 8
3 11 9 24 14 29 10 4 -5 2 3 -5 17 -16 32 -25 41 -16 15 6 -16 5 -17 -5 -8
-17 17 7 46 30 34 9 -4 55 -7 104 -6 49 0 87 -3 87 -9 0 -5 8 -2 18 7 10 9 23
13 30 8 15 -9 133 -8 149 2 6 4 14 4 16 0 5 -8 306 -8 337 -1 8 2 21 7 28 11
6 5 12 5 12 1 0 -4 11 5 23 20 16 19 23 39 22 62 -1 19 2 34 7 34 4 0 8 5 8
11 0 5 -4 8 -9 5 -5 -4 -8 1 -7 10 1 9 11 21 20 26 14 8 17 7 13 -3 -2 -8 -10
-13 -17 -11 -11 3 -11 0 -1 -12 7 -8 10 -20 7 -25 -4 -5 -2 -12 4 -16 17 -10
11 -25 -7 -19 -14 5 -15 4 -4 -4 11 -8 11 -10 0 -15 -10 -4 -10 -6 -1 -6 6 -1
12 -6 12 -12 0 -5 -5 -7 -12 -3 -7 5 -8 3 -3 -6 6 -9 4 -11 -6 -6 -8 4 -3 -2
11 -13 27 -22 50 -27 50 -11 0 5 -7 6 -17 3 -11 -4 -14 -3 -9 5 4 6 2 21 -4
32 -8 14 -8 20 0 20 6 0 10 8 8 18 -2 9 3 23 12 30 13 10 12 11 -5 5 -18 -6
-18 -5 -6 10 7 9 18 14 24 10 6 -4 7 -1 2 6 -5 9 -10 10 -18 2 -19 -19 -26
-12 -14 13 7 13 16 22 21 19 5 -4 6 -1 2 5 -4 6 -14 8 -22 5 -14 -5 -15 -3 -5
16 7 12 9 26 6 31 -3 5 3 13 12 19 10 6 13 11 6 11 -6 0 -15 -5 -18 -10 -4 -7
-13 -7 -26 0 -11 6 -17 15 -13 21 4 7 10 7 18 0 13 -11 32 -2 31 15 0 10 -29
44 -38 44 -2 0 -4 -6 -4 -14 0 -8 3 -15 6 -14 21 2 30 -4 25 -16 -5 -12 -8
-12 -23 0 -21 18 -21 81 0 95 11 8 9 9 -6 7 -12 -2 -19 2 -18 10 2 6 -4 12
-12 12 -8 0 -15 4 -15 8 0 31 -53 32 -2408 32 -2014 -1 -2361 -3 -2383 -15z
m4858 -212 c2 -6 -3 -18 -11 -26 -10 -9 -12 -17 -6 -20 6 -3 5 -4 -1 -3 -18 3
-17 64 0 61 8 -1 16 -6 18 -12z m-3859 -285 c-27 -20 -34 -22 -43 -8 -5 8 -11
7 -21 -1 -9 -7 -14 -8 -14 -1 0 17 20 25 34 13 10 -9 15 -8 19 2 2 7 14 13 26
13 l22 0 -23 -18z m452 1 c0 -6 -4 -8 -9 -4 -5 3 -12 1 -16 -5 -8 -13 -25 -3
-25 13 0 8 3 8 9 -1 7 -11 9 -10 15 3 6 17 26 12 26 -6z m553 6 c34 2 36 0 23
-13 -12 -12 -18 -13 -30 -3 -8 7 -17 8 -20 3 -8 -13 -79 -8 -84 6 -2 7 5 10
17 7 11 -2 23 1 27 6 3 6 11 6 17 2 7 -5 29 -8 50 -8z m915 -7 c-27 -20 -34
-22 -43 -8 -5 8 -11 7 -21 -1 -9 -7 -14 -8 -14 -1 0 17 20 25 34 13 10 -9 15
-8 19 2 2 7 14 13 26 13 l22 0 -23 -18z m452 1 c0 -6 -4 -8 -9 -4 -5 3 -12 1
-16 -5 -8 -13 -25 -3 -25 13 0 8 3 8 9 -1 7 -11 9 -10 15 3 6 17 26 12 26 -6z
m553 6 c34 2 36 0 23 -13 -12 -12 -18 -13 -30 -3 -8 7 -17 8 -20 3 -8 -13 -79
-8 -84 6 -2 7 5 10 17 7 11 -2 23 1 27 6 3 6 11 6 17 2 7 -5 29 -8 50 -8z
m-2785 -13 c8 -6 2 -9 -18 -9 -20 0 -26 3 -18 9 7 4 15 8 18 8 3 0 11 -4 18
-8z m1920 0 c8 -6 2 -9 -18 -9 -20 0 -26 3 -18 9 7 4 15 8 18 8 3 0 11 -4 18
-8z"/>
<path d="M3895 4100 c-3 -5 -1 -10 4 -10 6 0 11 5 11 10 0 6 -2 10 -4 10 -3 0
-8 -4 -11 -10z"/>
<path d="M5815 4100 c-3 -5 -1 -10 4 -10 6 0 11 5 11 10 0 6 -2 10 -4 10 -3 0
-8 -4 -11 -10z"/>
<path d="M6808 4512 c4 -10 7 -12 10 -4 2 7 9 9 15 5 7 -3 8 -2 4 2 -14 16
-36 14 -29 -3z"/>
<path d="M6759 4154 c-6 -7 -15 -12 -19 -9 -5 3 -11 1 -15 -5 -4 -6 -10 -8
-15 -5 -5 3 -14 -3 -20 -12 -8 -13 -13 -14 -16 -5 -4 8 -11 5 -24 -10 l-17
-22 -8 23 c-6 18 -9 21 -16 10 -8 -12 -11 -12 -19 1 -6 10 -10 11 -10 3 0 -25
2 -28 17 -25 8 2 13 -1 10 -5 -3 -5 -1 -15 5 -23 8 -12 9 -11 4 3 -5 15 -2 17
14 12 13 -4 20 -2 20 7 1 8 7 5 17 -7 12 -15 14 -16 10 -3 -4 12 -1 16 14 15
10 -1 19 -5 19 -10 0 -4 4 -6 9 -3 5 4 12 0 14 -6 4 -10 6 -10 6 0 1 6 7 12
14 12 8 0 19 11 25 25 6 14 17 25 24 25 9 0 8 -3 -2 -10 -8 -5 -11 -10 -6 -10
5 0 3 -7 -4 -15 -10 -13 -11 -18 -1 -28 10 -9 11 -9 6 3 -3 9 3 25 13 36 19
20 19 20 -9 36 -24 14 -30 14 -40 2z m15 -29 c-10 -15 -21 -22 -31 -18 -11 5
-14 3 -8 -6 6 -10 3 -11 -12 -2 -11 6 -23 7 -27 3 -4 -3 -4 2 0 13 5 11 9 14
12 7 5 -16 23 -16 20 0 -2 7 2 12 9 13 7 0 17 5 24 12 20 20 30 4 13 -22z"/>
<path d="M6760 4135 c-7 -9 -11 -17 -9 -20 3 -2 10 5 17 15 14 24 10 26 -8 5z"/>
<path d="M2254 4125 c-3 -8 -10 -15 -16 -15 -5 0 -6 5 -3 10 3 6 1 10 -5 10
-7 0 -9 -7 -6 -16 3 -8 2 -13 -2 -11 -4 3 -15 -4 -25 -13 -14 -13 -15 -20 -6
-26 8 -4 10 -3 5 5 -5 8 1 10 23 6 16 -3 33 0 36 5 4 6 11 7 17 4 6 -4 6 1 -1
14 -14 26 -14 43 0 20 6 -11 16 -15 27 -11 14 5 15 3 5 -8 -18 -18 -16 -32 3
-25 12 5 15 2 10 -11 -6 -14 -5 -15 5 -6 9 10 10 15 0 27 -7 8 -8 17 -3 20 11
7 26 -21 24 -44 -1 -10 0 -11 4 -2 3 6 11 9 17 5 7 -4 5 2 -3 12 -14 17 -13
18 2 12 10 -3 17 -3 17 1 -3 19 2 25 10 13 6 -9 6 -23 0 -35 -9 -18 -8 -19 3
-5 7 9 19 14 26 12 6 -3 12 -1 12 4 0 5 9 9 20 10 18 2 25 -8 21 -29 0 -5 4
-8 10 -8 6 0 8 8 4 19 -3 11 1 24 11 32 15 12 16 12 11 -6 -5 -15 0 -23 21
-32 l27 -13 -24 20 c-17 15 -19 20 -8 20 9 0 19 -5 23 -12 5 -8 10 -7 18 3 12
15 52 26 43 12 -3 -5 -1 -15 5 -23 8 -12 9 -11 4 3 -5 15 -2 17 14 12 13 -4
20 -2 20 7 1 8 7 5 17 -7 13 -17 15 -17 10 -2 -5 12 -2 17 8 15 13 -3 15 0 15
25 0 8 -4 7 -11 -3 -8 -11 -12 -12 -16 -2 -3 8 -10 5 -23 -10 l-17 -22 -8 23
c-6 18 -9 21 -16 10 -8 -12 -11 -12 -19 1 -6 9 -10 11 -10 3 0 -7 -10 -17 -21
-24 -15 -8 -19 -8 -15 0 6 10 0 13 -20 10 -4 0 -11 5 -15 13 -7 11 -9 11 -9
-1 0 -10 -3 -11 -14 -2 -11 9 -16 9 -21 0 -6 -8 -10 -7 -17 2 -7 10 -8 8 -4
-7 5 -14 2 -21 -9 -21 -11 0 -14 7 -9 21 4 17 3 18 -5 6 -10 -13 -11 -13 -11
0 0 13 -1 13 -10 0 -9 -13 -10 -13 -10 0 0 12 -2 12 -9 1 -6 -10 -10 -10 -16
-1 -6 9 -10 9 -16 -1 -8 -12 -11 -11 -19 1 -9 13 -10 13 -10 0 0 -13 -1 -13
-10 0 -5 8 -10 11 -10 7 0 -4 -9 -3 -20 3 -16 9 -22 8 -26 -5z m230 -26 c-3
-5 -10 -7 -15 -3 -5 3 -7 10 -3 15 3 5 10 7 15 3 5 -3 7 -10 3 -15z m-230 -4
c-7 -16 -24 -21 -24 -6 0 8 7 13 27 20 1 1 0 -6 -3 -14z m116 11 c0 -2 -7 -7
-16 -10 -8 -3 -12 -2 -9 4 6 10 25 14 25 6z m44 -12 c3 -8 2 -12 -4 -9 -6 3
-10 10 -10 16 0 14 7 11 14 -7z"/>
<path d="M3067 4129 c7 -7 15 -10 18 -7 3 3 -2 9 -12 12 -14 6 -15 5 -6 -5z"/>
<path d="M3294 4128 c-4 -7 -3 -8 4 -4 7 4 12 2 12 -3 0 -6 5 -11 10 -11 15 0
12 17 -5 23 -8 4 -17 1 -21 -5z"/>
<path d="M3475 4130 c-3 -5 -5 -10 -3 -11 32 -7 58 -5 58 3 0 6 -3 8 -6 5 -4
-3 -15 -2 -25 3 -12 7 -20 7 -24 0z"/>
<path d="M4029 4121 c8 -13 17 -18 29 -14 14 5 15 3 5 -8 -18 -18 -16 -32 3
-25 12 5 15 2 10 -11 -6 -14 -5 -15 5 -6 9 10 10 15 0 27 -7 8 -8 17 -3 20 11
7 26 -21 24 -44 -1 -10 0 -11 4 -2 3 6 11 9 17 5 7 -4 5 2 -3 12 -14 17 -13
18 3 12 10 -4 16 -3 12 2 -3 5 -1 12 5 16 5 3 10 0 10 -7 0 -11 2 -10 9 0 6
11 10 10 16 -5 5 -10 7 -25 6 -33 -2 -13 -1 -13 8 0 5 8 8 17 6 20 -2 3 6 12
17 19 18 11 20 11 15 -1 -3 -8 -1 -21 5 -29 8 -11 9 -10 4 4 -3 11 0 17 10 17
8 0 12 -4 9 -10 -3 -5 -1 -10 4 -10 6 0 11 4 11 8 0 12 34 11 42 -1 4 -7 11
-7 21 1 7 7 17 9 21 5 4 -4 4 -1 1 8 -4 10 1 15 16 16 17 2 19 -1 10 -10 -16
-16 -14 -30 5 -23 12 5 15 2 10 -11 -6 -14 -5 -15 5 -6 9 10 10 15 0 27 -7 8
-8 17 -3 20 11 7 26 -21 24 -44 -1 -10 0 -11 4 -2 3 6 11 9 17 5 7 -4 5 2 -3
12 -14 17 -13 18 2 12 10 -3 17 -3 17 1 -3 19 2 25 10 13 6 -9 6 -23 0 -35
-10 -21 -10 -21 5 -2 9 11 16 23 16 26 0 3 9 6 20 7 11 1 18 -2 16 -6 -3 -4 0
-13 6 -21 8 -12 9 -11 4 3 -5 15 -2 17 14 12 13 -4 20 -2 20 7 1 8 7 5 17 -7
13 -17 15 -17 10 -2 -4 11 -2 17 6 15 13 -3 17 3 17 25 0 8 -4 7 -11 -3 -8
-11 -12 -12 -16 -2 -3 8 -10 5 -23 -10 l-17 -22 -8 23 c-6 19 -9 21 -17 10 -8
-11 -11 -11 -15 -1 -4 10 -9 9 -19 -5 -13 -17 -14 -17 -8 0 7 19 -11 24 -22 6
-5 -8 -10 -6 -16 5 -5 9 -14 13 -20 10 -7 -5 -5 -12 7 -21 11 -7 14 -13 8 -13
-7 0 -19 7 -27 16 -12 12 -16 12 -16 2 0 -10 -2 -10 -9 1 -6 10 -10 10 -16 1
-6 -9 -10 -9 -16 1 -7 12 -9 12 -9 0 0 -11 -3 -11 -17 0 -11 10 -14 10 -9 2 4
-7 2 -13 -3 -13 -6 0 -11 6 -11 13 -1 6 -7 1 -14 -12 -8 -14 -16 -19 -20 -13
-3 6 -1 14 5 18 8 5 7 9 -2 15 -8 4 -19 3 -27 -4 -19 -15 -42 -18 -42 -4 -1 7
-8 1 -16 -13 -8 -14 -13 -17 -10 -8 6 20 -9 34 -20 17 -4 -8 -9 -7 -15 2 -7
12 -9 12 -9 0 0 -10 -3 -11 -14 -2 -11 9 -15 9 -19 -1 -4 -10 -8 -10 -16 2
-10 13 -11 13 -11 0 0 -13 -1 -13 -10 0 -5 8 -10 11 -10 7 0 -4 -9 -3 -21 3
-19 11 -20 10 -10 -9z m241 0 c0 -5 -7 -12 -16 -15 -14 -5 -15 -4 -4 9 14 17
20 19 20 6z m-140 -15 c0 -2 -7 -7 -16 -10 -8 -3 -12 -2 -9 4 6 10 25 14 25 6z
m203 -13 c-4 -10 -9 -11 -19 -2 -18 15 -18 15 5 15 11 0 17 -5 14 -13z"/>
<path d="M4987 4129 c7 -7 15 -10 18 -7 3 3 -2 9 -12 12 -14 6 -15 5 -6 -5z"/>
<path d="M5214 4128 c-4 -7 -3 -8 4 -4 7 4 12 2 12 -3 0 -6 5 -11 10 -11 15 0
12 17 -5 23 -8 4 -17 1 -21 -5z"/>
<path d="M5395 4130 c-3 -5 -5 -10 -3 -11 32 -7 58 -5 58 3 0 6 -3 8 -6 5 -4
-3 -15 -2 -25 3 -12 7 -20 7 -24 0z"/>
<path d="M5949 4121 c8 -13 17 -18 29 -14 14 5 15 3 5 -8 -18 -18 -16 -32 3
-25 12 5 15 2 10 -11 -6 -14 -5 -15 5 -6 9 10 10 15 0 27 -7 8 -8 17 -3 20 11
7 26 -21 24 -44 -1 -10 0 -11 4 -2 3 6 11 9 17 5 7 -4 5 2 -3 12 -14 17 -13
18 3 12 10 -4 16 -3 12 2 -3 5 -1 12 5 16 5 3 10 0 10 -7 0 -11 2 -10 9 0 6
11 10 10 16 -5 5 -10 7 -25 6 -33 -2 -13 -1 -13 8 0 5 8 8 17 6 20 -2 3 6 12
17 19 18 11 20 11 15 -1 -3 -8 -1 -21 5 -29 8 -11 9 -10 4 4 -3 11 0 17 10 17
8 0 12 -4 9 -10 -3 -5 -1 -10 4 -10 6 0 11 4 11 8 0 12 34 11 42 -1 4 -7 11
-7 21 1 7 7 17 9 21 5 4 -4 4 -1 1 8 -4 10 1 15 16 16 17 2 19 -1 10 -10 -16
-16 -14 -30 5 -23 12 5 15 2 10 -11 -6 -14 -5 -15 5 -6 9 10 10 15 0 27 -7 8
-8 17 -3 20 11 7 26 -21 24 -44 -1 -10 0 -11 4 -2 3 6 11 9 17 5 7 -4 5 2 -3
12 -14 17 -13 18 2 12 10 -3 17 -3 17 1 -3 19 2 25 10 13 6 -9 6 -23 0 -35
-10 -21 -10 -21 5 -2 9 11 16 23 16 26 0 3 9 6 20 7 11 1 18 -2 16 -6 -3 -4 0
-13 6 -21 8 -12 9 -11 4 3 -5 15 -2 17 14 12 13 -4 20 -2 20 7 1 8 7 5 17 -7
13 -17 15 -17 10 -2 -4 11 -2 17 6 15 13 -3 17 3 17 25 0 8 -4 7 -11 -3 -8
-11 -12 -12 -16 -2 -3 8 -10 5 -23 -10 l-17 -22 -8 23 c-6 19 -9 21 -17 10 -8
-11 -11 -11 -15 -1 -4 10 -9 9 -19 -5 -13 -17 -14 -17 -8 0 7 19 -11 24 -22 6
-5 -8 -10 -6 -16 5 -5 9 -14 13 -20 10 -7 -5 -5 -12 7 -21 11 -7 14 -13 8 -13
-7 0 -19 7 -27 16 -12 12 -16 12 -16 2 0 -10 -2 -10 -9 1 -6 10 -10 10 -16 1
-6 -9 -10 -9 -16 1 -7 12 -9 12 -9 0 0 -11 -3 -11 -17 0 -11 10 -14 10 -9 2 4
-7 2 -13 -3 -13 -6 0 -11 6 -11 13 -1 6 -7 1 -14 -12 -8 -14 -16 -19 -20 -13
-3 6 -1 14 5 18 8 5 7 9 -2 15 -8 4 -19 3 -27 -4 -19 -15 -42 -18 -42 -4 -1 7
-8 1 -16 -13 -8 -14 -13 -17 -10 -8 6 20 -9 34 -20 17 -4 -8 -9 -7 -15 2 -7
12 -9 12 -9 0 0 -10 -3 -11 -14 -2 -11 9 -15 9 -19 -1 -4 -10 -8 -10 -16 2
-10 13 -11 13 -11 0 0 -13 -1 -13 -10 0 -5 8 -10 11 -10 7 0 -4 -9 -3 -21 3
-19 11 -20 10 -10 -9z m241 0 c0 -5 -7 -12 -16 -15 -14 -5 -15 -4 -4 9 14 17
20 19 20 6z m-140 -15 c0 -2 -7 -7 -16 -10 -8 -3 -12 -2 -9 4 6 10 25 14 25 6z
m203 -13 c-4 -10 -9 -11 -19 -2 -18 15 -18 15 5 15 11 0 17 -5 14 -13z"/>
<path d="M1933 4115 c0 -8 4 -12 9 -9 5 3 6 10 3 15 -9 13 -12 11 -12 -6z"/>
<path d="M1969 4119 c-11 -7 -11 -9 -1 -9 8 0 10 -5 6 -12 -6 -10 -4 -10 8 0
11 9 18 10 23 2 3 -5 2 -10 -4 -10 -11 0 -9 -25 3 -37 4 -4 7 -3 6 2 -5 25 3
32 38 32 22 0 42 -7 50 -16 11 -14 12 -13 3 6 -15 31 -14 35 8 21 11 -7 17
-18 14 -27 -4 -10 0 -9 10 4 8 11 13 23 11 27 -3 5 -1 8 5 8 18 0 21 -17 6
-30 -8 -7 -15 -17 -15 -23 0 -5 9 0 20 13 11 12 17 27 14 32 -3 5 2 8 11 6 10
-2 20 3 23 10 5 15 -29 13 -40 -3 -5 -6 -8 -5 -8 4 0 11 -3 11 -15 1 -8 -7
-15 -8 -15 -3 0 5 -17 9 -37 8 -28 -1 -37 -5 -35 -16 1 -9 -5 -16 -13 -16 -10
0 -14 7 -10 21 3 12 2 15 -1 8 -3 -6 -11 -9 -17 -5 -18 11 -33 12 -48 2z m121
-5 c0 -8 -19 -13 -24 -6 -3 5 1 9 9 9 8 0 15 -2 15 -3z m50 -20 c0 -2 -9 0
-20 6 -11 6 -20 13 -20 16 0 2 9 0 20 -6 11 -6 20 -13 20 -16z"/>
<path d="M2546 4118 c3 -4 9 -8 15 -8 5 0 9 4 9 8 0 5 -7 9 -15 9 -8 0 -12 -4
-9 -9z"/>
<path d="M2630 4120 c0 -5 5 -10 10 -10 6 0 10 5 10 10 0 6 -4 10 -10 10 -5 0
-10 -4 -10 -10z"/>
<path d="M2710 4120 c0 -5 5 -10 10 -10 6 0 10 5 10 10 0 6 -4 10 -10 10 -5 0
-10 -4 -10 -10z"/>
<path d="M2790 4120 c0 -5 5 -10 10 -10 6 0 10 5 10 10 0 6 -4 10 -10 10 -5 0
-10 -4 -10 -10z"/>
<path d="M3590 4120 c0 -5 5 -10 10 -10 6 0 10 5 10 10 0 6 -4 10 -10 10 -5 0
-10 -4 -10 -10z"/>
<path d="M3670 4120 c0 -5 5 -10 10 -10 6 0 10 5 10 10 0 6 -4 10 -10 10 -5 0
-10 -4 -10 -10z"/>
<path d="M3750 4120 c0 -5 5 -10 10 -10 6 0 10 5 10 10 0 6 -4 10 -10 10 -5 0
-10 -4 -10 -10z"/>
<path d="M4550 4120 c0 -5 5 -10 10 -10 6 0 10 5 10 10 0 6 -4 10 -10 10 -5 0
-10 -4 -10 -10z"/>
<path d="M4630 4120 c0 -5 5 -10 10 -10 6 0 10 5 10 10 0 6 -4 10 -10 10 -5 0
-10 -4 -10 -10z"/>
<path d="M4710 4120 c0 -5 5 -10 10 -10 6 0 10 5 10 10 0 6 -4 10 -10 10 -5 0
-10 -4 -10 -10z"/>
<path d="M5510 4120 c0 -5 5 -10 10 -10 6 0 10 5 10 10 0 6 -4 10 -10 10 -5 0
-10 -4 -10 -10z"/>
<path d="M5590 4120 c0 -5 5 -10 10 -10 6 0 10 5 10 10 0 6 -4 10 -10 10 -5 0
-10 -4 -10 -10z"/>
<path d="M5670 4120 c0 -5 5 -10 10 -10 6 0 10 5 10 10 0 6 -4 10 -10 10 -5 0
-10 -4 -10 -10z"/>
<path d="M6470 4120 c0 -5 5 -10 10 -10 6 0 10 5 10 10 0 6 -4 10 -10 10 -5 0
-10 -4 -10 -10z"/>
<path d="M6550 4120 c0 -5 5 -10 10 -10 6 0 10 5 10 10 0 6 -4 10 -10 10 -5 0
-10 -4 -10 -10z"/>
<path d="M6630 4120 c0 -5 5 -10 10 -10 6 0 10 5 10 10 0 6 -4 10 -10 10 -5 0
-10 -4 -10 -10z"/>
<path d="M6819 4108 c-5 -18 -6 -38 -1 -34 7 8 12 36 6 36 -2 0 -4 -1 -5 -2z"/>
<path d="M2710 4090 c0 -5 5 -10 10 -10 6 0 10 5 10 10 0 6 -4 10 -10 10 -5 0
-10 -4 -10 -10z"/>
<path d="M3670 4090 c0 -5 5 -10 10 -10 6 0 10 5 10 10 0 6 -4 10 -10 10 -5 0
-10 -4 -10 -10z"/>
<path d="M4630 4090 c0 -5 5 -10 10 -10 6 0 10 5 10 10 0 6 -4 10 -10 10 -5 0
-10 -4 -10 -10z"/>
<path d="M5590 4090 c0 -5 5 -10 10 -10 6 0 10 5 10 10 0 6 -4 10 -10 10 -5 0
-10 -4 -10 -10z"/>
<path d="M6550 4090 c0 -5 5 -10 10 -10 6 0 10 5 10 10 0 6 -4 10 -10 10 -5 0
-10 -4 -10 -10z"/>
<path d="M2577 4073 c-10 -9 -9 -23 1 -23 5 0 9 7 9 15 0 17 -1 18 -10 8z"/>
<path d="M2737 4073 c-10 -9 -9 -23 1 -23 5 0 9 7 9 15 0 17 -1 18 -10 8z"/>
<path d="M3537 4073 c-10 -9 -9 -23 1 -23 5 0 9 7 9 15 0 17 -1 18 -10 8z"/>
<path d="M3697 4073 c-10 -9 -9 -23 1 -23 5 0 9 7 9 15 0 17 -1 18 -10 8z"/>
<path d="M4147 4066 c-4 -10 -1 -13 9 -9 7 3 14 9 14 14 0 14 -17 10 -23 -5z"/>
<path d="M4497 4073 c-10 -9 -9 -23 1 -23 5 0 9 7 9 15 0 17 -1 18 -10 8z"/>
<path d="M4657 4073 c-10 -9 -9 -23 1 -23 5 0 9 7 9 15 0 17 -1 18 -10 8z"/>
<path d="M5457 4073 c-10 -9 -9 -23 1 -23 5 0 9 7 9 15 0 17 -1 18 -10 8z"/>
<path d="M5617 4073 c-10 -9 -9 -23 1 -23 5 0 9 7 9 15 0 17 -1 18 -10 8z"/>
<path d="M6067 4066 c-4 -10 -1 -13 9 -9 7 3 14 9 14 14 0 14 -17 10 -23 -5z"/>
<path d="M6417 4073 c-10 -9 -9 -23 1 -23 5 0 9 7 9 15 0 17 -1 18 -10 8z"/>
<path d="M6577 4073 c-10 -9 -9 -23 1 -23 5 0 9 7 9 15 0 17 -1 18 -10 8z"/>
<path d="M2026 4061 c8 -8 43 -8 38 0 -2 4 -13 7 -24 6 -10 -1 -17 -3 -14 -6z"/>
<path d="M2255 4060 c-3 -5 -1 -10 4 -10 6 0 11 5 11 10 0 6 -2 10 -4 10 -3 0
-8 -4 -11 -10z"/>
<path d="M2440 4060 c-9 -6 -10 -10 -3 -10 6 0 15 5 18 10 8 12 4 12 -15 0z"/>
<path d="M2634 4062 c4 -3 14 -7 22 -8 9 -1 13 0 10 4 -4 3 -14 7 -22 8 -9 1
-13 0 -10 -4z"/>
<path d="M2794 4062 c4 -3 14 -7 22 -8 9 -1 13 0 10 4 -4 3 -14 7 -22 8 -9 1
-13 0 -10 -4z"/>
<path d="M2955 4060 c3 -5 8 -10 11 -10 2 0 4 5 4 10 0 6 -5 10 -11 10 -5 0
-7 -4 -4 -10z"/>
<path d="M3116 4062 c-2 -4 4 -8 14 -8 10 0 16 4 14 8 -3 4 -9 8 -14 8 -5 0
-11 -4 -14 -8z"/>
<path d="M3215 4060 c-3 -5 -1 -10 4 -10 6 0 11 5 11 10 0 6 -2 10 -4 10 -3 0
-8 -4 -11 -10z"/>
<path d="M3400 4060 c-9 -6 -10 -10 -3 -10 6 0 15 5 18 10 8 12 4 12 -15 0z"/>
<path d="M3594 4062 c4 -3 14 -7 22 -8 9 -1 13 0 10 4 -4 3 -14 7 -22 8 -9 1
-13 0 -10 -4z"/>
<path d="M3754 4062 c4 -3 14 -7 22 -8 9 -1 13 0 10 4 -4 3 -14 7 -22 8 -9 1
-13 0 -10 -4z"/>
<path d="M4015 4060 c-3 -5 -1 -10 4 -10 6 0 11 5 11 10 0 6 -2 10 -4 10 -3 0
-8 -4 -11 -10z"/>
<path d="M4280 4060 c-12 -7 -10 -9 7 -7 12 0 19 5 17 9 -6 10 -6 10 -24 -2z"/>
<path d="M4335 4060 c-3 -5 -1 -10 4 -10 6 0 11 5 11 10 0 6 -2 10 -4 10 -3 0
-8 -4 -11 -10z"/>
<path d="M4554 4062 c4 -3 14 -7 22 -8 9 -1 13 0 10 4 -4 3 -14 7 -22 8 -9 1
-13 0 -10 -4z"/>
<path d="M4714 4062 c4 -3 14 -7 22 -8 9 -1 13 0 10 4 -4 3 -14 7 -22 8 -9 1
-13 0 -10 -4z"/>
<path d="M4875 4060 c3 -5 8 -10 11 -10 2 0 4 5 4 10 0 6 -5 10 -11 10 -5 0
-7 -4 -4 -10z"/>
<path d="M5036 4062 c-2 -4 4 -8 14 -8 10 0 16 4 14 8 -3 4 -9 8 -14 8 -5 0
-11 -4 -14 -8z"/>
<path d="M5135 4060 c-3 -5 -1 -10 4 -10 6 0 11 5 11 10 0 6 -2 10 -4 10 -3 0
-8 -4 -11 -10z"/>
<path d="M5320 4060 c-9 -6 -10 -10 -3 -10 6 0 15 5 18 10 8 12 4 12 -15 0z"/>
<path d="M5514 4062 c4 -3 14 -7 22 -8 9 -1 13 0 10 4 -4 3 -14 7 -22 8 -9 1
-13 0 -10 -4z"/>
<path d="M5674 4062 c4 -3 14 -7 22 -8 9 -1 13 0 10 4 -4 3 -14 7 -22 8 -9 1
-13 0 -10 -4z"/>
<path d="M5935 4060 c-3 -5 -1 -10 4 -10 6 0 11 5 11 10 0 6 -2 10 -4 10 -3 0
-8 -4 -11 -10z"/>
<path d="M6200 4060 c-12 -7 -10 -9 7 -7 12 0 19 5 17 9 -6 10 -6 10 -24 -2z"/>
<path d="M6255 4060 c-3 -5 -1 -10 4 -10 6 0 11 5 11 10 0 6 -2 10 -4 10 -3 0
-8 -4 -11 -10z"/>
<path d="M6474 4062 c4 -3 14 -7 22 -8 9 -1 13 0 10 4 -4 3 -14 7 -22 8 -9 1
-13 0 -10 -4z"/>
<path d="M6634 4062 c4 -3 14 -7 22 -8 9 -1 13 0 10 4 -4 3 -14 7 -22 8 -9 1
-13 0 -10 -4z"/>
<path d="M324 2745 l0 -635 621 0 622 0 0 355 c0 247 -3 355 -11 358 -6 2 -40
3 -76 2 l-65 -1 -3 -277 -2 -277 -466 2 -466 3 1 468 c0 258 2 471 5 474 2 3
141 6 308 7 l303 1 3 78 3 77 -389 0 -388 0 0 -635z"/>
<path d="M1098 3047 l-207 -212 -78 78 -79 77 -88 -90 -89 -91 50 -52 c28 -29
103 -106 166 -172 l116 -120 137 140 c75 77 210 214 300 305 l163 166 -90 92
c-49 51 -91 92 -92 92 -1 -1 -95 -96 -209 -213z"/>
<path d="M1965 2971 c-11 -5 -29 -19 -40 -31 -18 -20 -20 -35 -19 -189 0 -91
2 -173 4 -182 6 -30 63 -59 121 -61 30 -1 60 1 67 5 8 6 10 3 5 -9 -6 -15 -4
-15 21 1 24 16 26 16 20 1 -4 -12 -2 -15 9 -10 10 3 20 -3 27 -17 11 -19 10
-21 -5 -16 -9 4 -20 7 -23 7 -4 0 -1 4 7 9 9 6 4 8 -18 7 -17 0 -31 -5 -31
-11 0 -5 -4 -4 -9 3 -4 8 -11 13 -15 13 -3 -1 -7 -1 -8 0 -2 1 -15 2 -30 3
-20 2 -25 -1 -21 -13 4 -11 1 -10 -9 3 -8 10 -20 16 -26 12 -6 -3 -13 -2 -17
4 -4 6 -11 8 -16 5 -12 -8 -12 -35 1 -35 5 0 7 8 4 18 -5 16 -5 16 9 0 8 -10
22 -18 32 -18 15 0 16 -2 4 -17 -13 -16 -12 -17 3 -5 14 11 18 10 27 -5 6 -10
11 -12 11 -5 0 8 9 11 28 7 20 -4 22 -3 8 3 -14 6 -16 11 -7 16 14 9 41 -10
37 -27 -1 -7 -1 -8 2 -4 2 4 11 2 20 -5 10 -7 6 0 -7 15 -30 33 -17 36 18 5
14 -13 19 -15 12 -5 -15 19 -2 24 17 5 9 -9 12 -9 12 1 0 11 3 11 15 1 8 -7
12 -17 8 -23 -3 -6 -1 -7 6 -3 9 6 9 11 0 22 -7 9 -8 14 -1 14 6 0 14 -4 17
-10 3 -5 11 -10 18 -10 6 0 2 7 -9 15 -16 12 -16 14 -3 15 21 0 41 -24 31 -36
-4 -5 -3 -6 2 -2 5 4 16 2 25 -4 9 -7 5 0 -8 15 -30 33 -17 36 18 5 14 -13 19
-15 12 -5 -15 19 -2 24 17 5 9 -9 12 -9 12 1 0 11 3 11 15 1 8 -7 12 -17 8
-23 -3 -6 -1 -7 6 -3 9 6 9 11 0 22 -7 9 -8 14 -1 14 6 0 14 -4 17 -10 3 -5
11 -10 18 -10 6 0 2 7 -9 15 -15 11 -16 14 -3 15 19 0 38 -19 35 -34 -2 -6 -1
-7 2 -3 2 4 11 2 20 -5 10 -7 6 0 -7 15 -30 33 -17 36 18 5 14 -13 19 -15 12
-5 -15 19 -2 24 17 5 9 -9 12 -9 12 1 0 11 3 11 15 1 8 -7 12 -17 8 -23 -3 -6
-1 -7 6 -3 9 6 9 11 -1 24 -11 13 -11 15 3 10 9 -4 22 -1 29 5 10 10 12 8 6
-7 -6 -18 -5 -18 18 -2 14 9 27 12 31 7 3 -5 -1 -12 -7 -15 -7 -3 -4 -4 7 -3
11 1 23 6 27 11 8 12 -1 36 -14 36 -6 0 -4 -7 3 -17 12 -14 12 -16 -1 -11 -8
3 -14 12 -14 20 1 8 -4 15 -11 15 -7 0 -11 -7 -8 -16 3 -12 1 -11 -11 3 -17
21 -12 41 7 29 22 -14 49 -14 41 -1 -6 10 -4 10 8 0 9 -7 19 -9 22 -4 6 11 76
3 76 -9 0 -14 26 -10 40 6 7 8 17 12 24 8 17 -11 35 -12 41 -3 3 5 18 5 34 0
16 -4 32 -6 35 -2 3 3 6 0 6 -7 0 -7 5 -9 10 -6 6 4 7 12 3 18 -4 8 -1 7 9 -1
10 -8 19 -9 22 -3 4 6 18 6 35 1 16 -4 32 -6 35 -2 3 3 6 0 6 -7 0 -7 5 -9 10
-6 6 4 7 11 4 17 -5 7 -2 8 5 3 19 -11 81 -13 81 -2 0 5 6 4 14 -2 9 -7 17 -8
20 -2 7 11 46 3 46 -10 0 -14 26 -10 40 6 7 8 17 12 24 8 17 -11 35 -12 41 -3
3 5 18 5 34 0 16 -4 32 -6 35 -2 3 3 6 0 6 -7 0 -7 5 -9 10 -6 6 4 7 12 3 18
-4 8 -1 7 9 -1 10 -8 19 -9 22 -3 4 6 18 6 35 1 16 -4 32 -6 35 -2 3 3 6 0 6
-7 0 -7 5 -9 10 -6 6 4 7 11 4 17 -5 7 -2 8 5 3 19 -11 81 -13 81 -2 0 5 6 4
14 -2 9 -7 17 -8 20 -2 7 11 46 3 46 -10 0 -14 26 -10 40 6 7 9 17 12 24 7 10
-7 31 -9 39 -2 1 1 14 3 28 4 19 1 25 -2 21 -12 -4 -12 0 -11 19 2 23 14 25
14 25 -3 0 -11 -6 -18 -16 -16 -8 1 -18 -3 -22 -9 -6 -8 -8 -7 -8 1 0 7 -7 10
-17 7 -16 -5 -16 -4 -3 6 13 10 13 11 0 7 -8 -2 -14 -12 -12 -22 2 -11 -1 -14
-8 -10 -6 4 -9 13 -6 21 4 11 1 12 -12 6 -9 -5 -28 -8 -41 -7 -20 2 -22 0 -8
-10 14 -10 13 -13 -5 -24 -18 -11 -20 -11 -15 2 4 10 -3 21 -18 31 -21 14 -26
14 -38 1 -13 -13 -16 -13 -21 0 -8 21 -23 19 -36 -6 -14 -24 -6 -37 13 -21 15
13 49 10 55 -6 2 -7 -6 -9 -21 -6 -17 3 -27 -1 -31 -12 -5 -13 -3 -14 6 -7 7
6 21 9 31 8 9 -2 22 5 27 16 6 10 16 19 23 19 9 0 9 -3 -1 -9 -10 -6 -9 -11 4
-22 13 -11 18 -11 21 -1 3 6 11 12 19 12 8 0 14 4 14 9 0 13 24 8 44 -8 8 -7
21 -11 28 -8 8 3 5 6 -6 6 -15 1 -17 4 -8 13 14 14 45 -8 35 -26 -3 -6 -3 -8
2 -4 4 4 15 2 24 -4 9 -7 5 0 -8 15 -30 33 -17 36 18 5 14 -13 19 -15 12 -5
-15 19 -2 24 17 5 9 -9 12 -9 12 1 0 11 3 11 15 1 8 -7 12 -17 8 -23 -3 -6 -1
-7 6 -3 9 6 9 11 0 22 -7 9 -8 14 -1 14 6 0 14 -4 17 -10 3 -5 11 -10 18 -10
6 0 2 7 -9 15 -15 11 -16 14 -3 15 19 0 38 -19 35 -34 -2 -6 -1 -7 2 -3 2 4
11 2 20 -5 10 -7 6 0 -7 15 -30 33 -17 36 18 5 14 -13 19 -15 12 -5 -15 19 -2
24 17 5 9 -9 12 -9 12 1 0 11 3 11 15 1 8 -7 12 -17 8 -23 -3 -6 -1 -7 6 -3 9
6 9 11 0 22 -7 9 -8 14 -1 14 6 0 14 -4 17 -10 3 -5 11 -10 18 -10 6 0 2 7 -9
15 -16 12 -16 14 -3 15 18 0 42 -23 34 -33 -3 -4 -2 -5 2 -2 3 3 13 -1 22 -7
9 -7 5 0 -8 15 -30 33 -17 36 18 5 14 -13 19 -15 12 -5 -15 19 -2 24 17 5 9
-9 12 -9 12 1 0 11 3 11 15 1 8 -7 12 -17 8 -23 -3 -6 -1 -7 6 -3 9 6 9 11 0
22 -7 9 -8 14 -1 14 6 0 14 -4 17 -10 3 -5 11 -10 18 -10 6 0 2 7 -9 15 -15
11 -16 14 -3 15 19 0 38 -19 35 -34 -2 -6 -1 -7 2 -3 2 4 11 2 20 -5 10 -7 6
0 -7 15 -30 33 -17 36 18 5 14 -13 19 -15 12 -5 -15 19 -2 24 17 5 9 -9 12 -9
12 1 0 11 3 11 15 1 8 -7 12 -17 8 -23 -3 -6 -1 -7 6 -3 9 6 9 11 -1 24 -11
13 -11 15 3 10 9 -4 22 -1 29 5 10 10 12 8 6 -7 -6 -18 -5 -18 18 -2 14 9 27
12 31 7 3 -5 -1 -12 -7 -15 -7 -3 -4 -4 7 -3 11 1 23 6 27 11 8 12 -1 36 -14
36 -6 0 -4 -7 3 -17 12 -14 12 -16 -1 -11 -8 3 -14 12 -14 20 1 8 -4 15 -11
15 -7 0 -11 -7 -8 -16 3 -12 1 -11 -11 3 -17 21 -12 41 7 29 22 -14 49 -14 41
-1 -6 10 -4 10 8 0 9 -7 19 -9 22 -4 6 11 76 3 76 -9 0 -14 26 -10 40 6 7 8
17 12 24 8 17 -11 35 -12 41 -3 3 5 18 5 34 0 16 -4 32 -6 35 -2 3 3 6 0 6 -7
0 -7 5 -9 10 -6 6 4 7 12 3 18 -4 8 -1 7 9 -1 10 -8 19 -9 22 -3 4 6 18 6 35
1 16 -4 32 -6 35 -2 3 3 6 0 6 -7 0 -7 5 -9 10 -6 6 4 7 11 4 17 -5 7 -2 8 5
3 19 -11 81 -13 81 -2 0 5 6 4 14 -2 9 -7 17 -8 20 -2 7 11 46 3 46 -10 0 -14
26 -10 40 6 7 8 17 12 24 8 17 -11 35 -12 41 -3 3 5 18 5 34 0 16 -4 32 -6 35
-2 3 3 6 0 6 -7 0 -7 5 -9 10 -6 6 4 7 12 3 18 -4 8 -1 7 9 -1 10 -8 19 -9 22
-3 4 6 18 6 35 1 16 -4 32 -6 35 -2 3 3 6 0 6 -7 0 -7 5 -9 10 -6 6 4 7 11 4
17 -5 7 -2 8 5 3 19 -11 81 -13 81 -2 0 5 6 4 14 -2 9 -7 17 -8 20 -2 7 11 46
3 46 -10 0 -14 26 -10 40 6 7 9 17 12 24 7 10 -7 31 -9 39 -2 1 1 14 3 28 4
19 1 25 -2 21 -12 -4 -12 0 -11 19 2 23 14 25 14 25 -3 0 -11 -6 -18 -16 -16
-8 1 -18 -3 -22 -9 -6 -8 -8 -7 -8 1 0 7 -7 10 -17 7 -16 -5 -16 -4 -3 6 13
10 13 11 0 7 -8 -2 -14 -12 -12 -22 2 -11 -1 -14 -8 -10 -6 4 -9 13 -6 21 4
11 1 12 -12 6 -9 -5 -28 -8 -41 -7 -20 2 -22 0 -8 -10 14 -10 13 -13 -5 -24
-18 -11 -20 -11 -15 2 4 10 -3 21 -18 31 -21 14 -26 14 -38 1 -13 -13 -16 -13
-21 0 -8 21 -23 19 -36 -6 -14 -24 -6 -37 13 -21 15 13 49 10 55 -6 2 -7 -6
-9 -21 -6 -17 3 -27 -1 -31 -12 -5 -13 -3 -14 6 -7 7 6 21 9 31 8 9 -2 22 5
27 16 6 10 16 19 23 19 9 0 9 -3 -1 -9 -10 -6 -9 -11 4 -22 13 -11 18 -11 21
-1 3 6 11 12 19 12 8 0 14 4 14 9 0 13 24 8 44 -8 8 -7 21 -11 28 -8 8 3 5 6
-7 6 -14 1 -16 4 -7 13 14 14 45 -8 35 -26 -3 -6 -3 -8 2 -4 4 4 15 2 24 -4 9
-7 5 0 -8 15 -30 33 -17 36 18 5 14 -13 19 -15 12 -5 -15 19 -2 24 17 5 9 -9
12 -9 12 1 0 11 3 11 15 1 8 -7 12 -17 8 -23 -3 -6 -1 -7 6 -3 9 6 9 11 0 22
-7 9 -8 14 -1 14 6 0 14 -4 17 -10 3 -5 11 -10 18 -10 6 0 2 7 -9 15 -15 11
-16 14 -4 15 20 0 39 -19 36 -34 -2 -6 -1 -7 2 -3 2 4 11 2 20 -5 10 -7 6 0
-7 15 -30 33 -17 36 18 5 14 -13 19 -15 12 -5 -15 19 -2 24 17 5 9 -9 12 -9
12 1 0 11 3 11 15 1 8 -7 12 -17 8 -23 -3 -6 -1 -7 6 -3 9 6 9 11 0 22 -7 9
-8 14 -1 14 6 0 14 -4 17 -10 3 -5 11 -10 18 -10 6 0 2 7 -9 15 -16 12 -16 14
-3 15 21 0 41 -24 31 -36 -4 -5 -3 -6 2 -2 5 4 16 2 25 -4 9 -7 5 0 -8 15 -30
33 -17 36 18 5 14 -13 19 -15 12 -5 -15 19 -2 24 17 5 9 -9 12 -9 12 1 0 11 3
11 15 1 8 -7 12 -17 8 -23 -3 -6 -1 -7 6 -3 9 6 9 11 0 22 -7 9 -8 14 -1 14 6
0 14 -4 17 -10 3 -6 11 -10 18 -10 6 0 2 7 -9 15 -15 11 -16 14 -4 15 20 0 39
-19 36 -34 -2 -6 -1 -7 2 -3 2 4 11 2 20 -5 10 -7 6 0 -7 15 -30 33 -17 36 18
5 14 -13 19 -15 12 -5 -15 19 -2 24 17 5 9 -9 12 -9 12 1 0 11 3 11 15 1 8 -7
12 -17 8 -23 -3 -6 -1 -7 6 -3 9 6 9 11 -1 24 -11 13 -11 15 3 10 9 -4 22 -1
29 5 10 10 12 8 6 -7 -6 -18 -5 -18 18 -2 14 9 27 12 31 7 3 -5 -1 -12 -7 -15
-7 -3 -4 -4 7 -3 11 1 23 6 27 11 8 12 -1 36 -14 36 -6 0 -4 -7 3 -17 12 -14
12 -16 -1 -11 -8 3 -14 12 -14 20 1 8 -4 15 -11 15 -7 0 -11 -7 -8 -16 3 -12
1 -11 -11 3 -17 21 -12 41 7 29 22 -14 49 -14 41 -1 -6 10 -4 10 8 0 10 -8 19
-9 22 -3 4 6 18 6 35 1 16 -4 32 -6 35 -2 3 3 6 0 6 -6 0 -17 25 -15 40 3 7 8
17 12 24 8 17 -11 36 -12 36 -3 0 5 9 7 20 5 11 -2 20 0 20 4 0 5 9 11 21 14
12 3 18 10 15 16 -4 5 0 13 8 18 15 8 16 11 16 38 0 8 4 15 8 15 5 0 9 -7 9
-15 0 -8 -5 -15 -11 -15 -5 0 -2 -6 8 -13 18 -13 12 -52 -6 -41 -6 4 -6 9 2
14 9 5 9 9 1 14 -6 4 -12 2 -12 -3 -1 -6 -3 -15 -4 -21 -1 -5 -3 -16 -4 -22
-1 -9 -4 -8 -11 2 -7 11 -10 11 -10 2 0 -7 -4 -11 -9 -7 -5 3 -13 0 -17 -6 -4
-7 -3 -9 2 -6 6 3 11 -3 11 -14 2 -18 0 -18 -17 3 -11 13 -19 18 -20 12 0 -11
-6 -13 -58 -17 -25 -1 -29 -4 -18 -13 12 -8 11 -12 -6 -23 -18 -11 -20 -11
-15 3 7 16 -2 25 -30 31 -10 2 -25 5 -33 7 -8 1 -14 -3 -12 -10 2 -10 -3 -10
-20 -2 -20 10 -21 9 -6 -2 14 -12 14 -16 2 -24 -10 -7 -11 -13 -3 -24 9 -13
10 -12 5 3 -7 22 3 22 21 0 13 -16 13 -16 4 4 -10 19 -8 22 9 20 14 -1 19 -6
15 -17 -2 -8 3 -5 11 8 9 12 22 22 28 22 7 0 6 -3 -2 -9 -10 -6 -9 -11 4 -22
13 -11 18 -11 21 -1 3 6 11 12 19 12 8 0 14 4 14 9 0 13 25 8 46 -9 10 -8 15
-10 11 -4 -4 7 0 15 9 18 12 5 15 2 10 -11 -4 -10 -4 -14 0 -10 4 4 13 -1 21
-11 13 -15 13 -15 4 5 -16 31 -14 37 7 22 15 -13 16 -12 4 3 -8 9 -9 19 -4 22
6 3 13 -1 16 -10 8 -22 28 -6 21 17 -5 15 -3 18 12 13 14 -5 15 -4 4 4 -12 9
-12 13 -2 26 7 9 11 22 8 30 -3 8 1 17 9 20 16 6 19 26 3 26 -5 0 -7 -4 -4
-10 3 -5 2 -10 -4 -10 -14 0 -23 18 -12 25 15 9 1 35 -18 35 -14 0 -14 -2 -1
-11 13 -9 13 -10 0 -7 -18 6 -21 78 -2 78 14 0 15 -6 3 -29 -7 -13 -5 -17 10
-18 20 -2 27 31 9 42 -6 4 -7 11 -4 17 4 6 10 5 16 -3 6 -10 7 -7 3 10 -5 15
-3 21 3 17 16 -10 8 21 -12 43 -11 12 -14 21 -7 26 6 3 11 14 11 23 0 15 -2
15 -10 2 -8 -13 -10 -12 -11 5 -1 11 -1 24 0 29 1 5 -4 4 -11 -2 -11 -9 -13
-5 -12 16 1 15 7 26 13 24 7 -1 10 2 6 7 -3 6 -12 8 -20 4 -8 -3 -15 0 -15 6
0 6 -15 20 -32 31 -33 20 -57 20 -2393 19 -1298 0 -2369 -4 -2380 -8z m4840
-138 c3 -10 1 -19 -4 -21 -6 -2 -11 -8 -11 -13 0 -6 4 -8 8 -5 5 3 15 -3 24
-13 13 -15 13 -21 2 -36 -18 -24 -43 -28 -39 -6 1 9 8 15 15 13 6 -1 10 3 7
10 -2 7 -9 12 -14 11 -5 -1 -9 16 -9 38 0 41 9 51 21 22z m-8 -334 c0 -21 -3
-26 -9 -16 -4 9 -5 22 -2 31 9 23 11 20 11 -15z m-4534 5 c-5 -15 -3 -15 21 1
22 15 25 15 20 2 -6 -18 31 -43 41 -28 3 6 14 8 25 6 12 -2 17 1 14 9 -3 8 4
15 20 18 18 4 23 1 19 -10 -5 -11 -1 -11 21 3 25 17 26 17 19 0 -5 -14 -3 -16
7 -10 8 5 18 1 27 -10 7 -11 13 -14 13 -8 0 6 13 9 30 8 16 -1 27 1 24 6 -3 5
-10 7 -15 4 -5 -4 -9 -1 -9 4 0 20 25 11 45 -17 13 -19 14 -23 3 -14 -11 9
-18 10 -23 2 -5 -8 -11 -8 -21 1 -8 6 -14 7 -14 2 0 -14 -65 -9 -84 6 -13 11
-16 11 -17 0 0 -10 -2 -11 -6 -2 -3 9 -10 10 -22 3 -10 -5 -21 -6 -25 -3 -3 3
-6 2 -6 -4 0 -14 -65 -10 -84 6 -13 11 -16 11 -17 0 0 -10 -2 -11 -6 -2 -3 9
-10 10 -22 3 -10 -5 -21 -6 -25 -3 -3 3 -6 0 -6 -8 -1 -10 -5 -8 -15 5 -19 25
-19 36 0 36 8 0 15 -5 15 -11 0 -5 -6 -7 -12 -3 -7 4 -9 3 -5 -1 13 -15 36
-14 31 0 -4 8 4 15 18 18 13 2 24 5 25 6 1 0 0 -6 -4 -15z m1760 0 c-5 -15 -3
-15 21 1 25 17 26 17 19 0 -5 -14 -3 -16 7 -10 8 5 18 1 27 -10 7 -11 13 -14
13 -7 0 6 9 9 19 7 13 -2 18 1 15 9 -3 8 4 15 20 18 18 4 23 1 19 -10 -5 -11
-1 -11 21 3 22 15 25 15 20 2 -6 -18 31 -43 41 -28 3 6 14 8 25 6 12 -2 17 1
14 9 -3 8 4 15 20 18 18 4 23 1 19 -10 -5 -11 -1 -11 21 3 25 17 26 17 19 0
-5 -14 -3 -16 7 -10 8 5 18 1 27 -10 7 -11 13 -14 13 -8 0 6 13 9 30 8 16 -1
27 1 24 6 -3 5 -10 7 -15 4 -5 -4 -9 -1 -9 4 0 20 25 11 45 -17 13 -19 14 -23
3 -14 -11 9 -18 10 -23 2 -5 -8 -11 -8 -21 1 -8 6 -14 7 -14 2 0 -14 -65 -9
-84 6 -13 11 -16 11 -17 0 0 -10 -2 -11 -6 -2 -3 9 -10 10 -22 3 -10 -5 -21
-6 -25 -3 -3 3 -6 2 -6 -4 0 -14 -65 -10 -84 6 -13 11 -16 11 -17 0 0 -10 -2
-11 -6 -2 -3 9 -10 10 -22 3 -10 -5 -21 -6 -25 -3 -3 3 -6 2 -6 -4 0 -14 -65
-10 -84 6 -13 11 -16 11 -17 0 0 -10 -2 -11 -6 -2 -3 9 -10 10 -22 3 -10 -5
-21 -6 -25 -3 -3 3 -6 2 -6 -4 0 -11 -65 -11 -76 -1 -3 4 6 5 20 4 15 -2 29 0
31 5 3 4 14 6 25 4 13 -2 17 1 14 10 -4 8 3 15 18 18 13 2 24 5 25 6 1 0 0 -6
-4 -15z m1920 0 c-5 -15 -3 -15 21 1 25 17 26 17 19 0 -5 -14 -3 -16 7 -10 8
5 18 1 27 -10 7 -11 13 -14 13 -7 0 6 9 9 19 7 13 -2 18 1 15 9 -3 8 4 15 20
18 18 4 23 1 19 -10 -5 -11 -1 -11 21 3 22 15 25 15 20 2 -6 -18 31 -43 41
-28 3 6 14 8 25 6 12 -2 17 1 14 9 -3 8 4 15 20 18 18 4 23 1 19 -10 -5 -11
-1 -11 21 3 25 17 26 17 19 0 -5 -14 -3 -16 7 -10 8 5 18 1 27 -10 7 -11 13
-14 13 -8 0 6 13 9 30 8 16 -1 27 1 24 6 -3 5 -10 7 -15 4 -5 -4 -9 -1 -9 4 0
20 25 11 45 -17 13 -19 14 -23 3 -14 -11 9 -18 10 -23 2 -5 -8 -11 -8 -21 1
-8 6 -14 7 -14 2 0 -14 -65 -9 -84 6 -13 11 -16 11 -17 0 0 -10 -2 -11 -6 -2
-3 9 -10 10 -22 3 -10 -5 -21 -6 -25 -3 -3 3 -6 2 -6 -4 0 -14 -65 -10 -84 6
-13 11 -16 11 -17 0 0 -10 -2 -11 -6 -2 -3 9 -10 10 -22 3 -10 -5 -21 -6 -25
-3 -3 3 -6 2 -6 -4 0 -14 -65 -10 -84 6 -13 11 -16 11 -17 0 0 -10 -2 -11 -6
-2 -3 9 -10 10 -22 3 -10 -5 -21 -6 -25 -3 -3 3 -6 2 -6 -4 0 -11 -65 -11 -76
-1 -3 4 6 5 20 4 15 -2 29 0 31 5 3 4 14 6 25 4 13 -2 17 1 14 10 -4 8 3 15
18 18 13 2 24 5 25 6 1 0 0 -6 -4 -15z m-3603 -6 c0 6 7 12 15 12 8 0 15 -5
15 -11 0 -5 -4 -8 -9 -4 -5 3 -12 1 -16 -4 -3 -6 -12 -8 -20 -5 -8 4 -12 11
-9 16 4 6 10 5 15 -3 6 -10 9 -11 9 -1z m190 4 c0 -5 -7 -9 -15 -9 -8 0 -15 4
-15 9 0 4 7 8 15 8 8 0 15 -4 15 -8z m1410 -4 c0 6 7 12 15 12 8 0 15 -5 15
-11 0 -5 -4 -8 -9 -4 -5 3 -12 1 -16 -4 -3 -6 -12 -8 -20 -5 -8 4 -12 11 -9
16 4 6 10 5 15 -3 6 -10 9 -11 9 -1z m190 4 c0 -5 -7 -9 -15 -9 -8 0 -15 4
-15 9 0 4 7 8 15 8 8 0 15 -4 15 -8z m130 -4 c0 6 7 12 15 12 8 0 15 -5 15
-11 0 -5 -4 -8 -9 -4 -5 3 -12 1 -16 -4 -3 -6 -12 -8 -20 -5 -8 4 -12 11 -9
16 4 6 10 5 15 -3 6 -10 9 -11 9 -1z m190 4 c0 -5 -7 -9 -15 -9 -8 0 -15 4
-15 9 0 4 7 8 15 8 8 0 15 -4 15 -8z m1410 -4 c0 6 7 12 15 12 8 0 15 -5 15
-11 0 -5 -4 -8 -9 -4 -5 3 -12 1 -16 -4 -3 -6 -12 -8 -20 -5 -8 4 -12 11 -9
16 4 6 10 5 15 -3 6 -10 9 -11 9 -1z m190 4 c0 -5 -7 -9 -15 -9 -8 0 -15 4
-15 9 0 4 7 8 15 8 8 0 15 -4 15 -8z m130 -4 c0 6 7 12 15 12 8 0 15 -5 15
-11 0 -5 -4 -8 -9 -4 -5 3 -12 1 -16 -4 -3 -6 -12 -8 -20 -5 -8 4 -12 11 -9
16 4 6 10 5 15 -3 6 -10 9 -11 9 -1z m190 4 c0 -5 -7 -9 -15 -9 -8 0 -15 4
-15 9 0 4 7 8 15 8 8 0 15 -4 15 -8z m400 -2 c0 -5 -5 -10 -11 -10 -5 0 -7 5
-4 10 3 6 8 10 11 10 2 0 4 -4 4 -10z m-4694 -22 c3 -4 -3 -11 -14 -17 -22
-12 -33 -6 -26 14 5 13 28 15 40 3z m1574 8 c0 -2 -7 -9 -15 -16 -13 -11 -14
-10 -9 4 5 14 24 23 24 12z m54 -17 c-3 -5 -10 -7 -15 -3 -5 3 -7 10 -3 15 3
5 10 7 15 3 5 -3 7 -10 3 -15z m1866 17 c0 -2 -7 -9 -15 -16 -13 -11 -14 -10
-9 4 5 14 24 23 24 12z m54 -17 c-3 -5 -10 -7 -15 -3 -5 3 -7 10 -3 15 3 5 10
7 15 3 5 -3 7 -10 3 -15z m957 4 c2 1 3 0 1 -2 -7 -11 -31 -8 -36 5 -4 11 -1
12 13 5 10 -6 20 -9 22 -8z m149 6 c0 -6 -4 -7 -10 -4 -5 3 -10 1 -10 -5 0 -6
-4 -8 -10 -5 -16 10 -11 21 10 22 11 1 20 -3 20 -8z"/>
<path d="M2280 2496 c0 -2 8 -10 18 -17 15 -13 16 -12 3 4 -13 16 -21 21 -21
13z"/>
<path d="M2449 2488 c11 -15 41 -15 41 -1 0 3 -6 3 -14 0 -7 -3 -20 0 -27 6
-11 10 -11 9 0 -5z"/>
<path d="M4049 2488 c11 -15 41 -15 41 -1 0 3 -6 3 -14 0 -7 -3 -20 0 -27 6
-11 10 -11 9 0 -5z"/>
<path d="M4200 2496 c0 -2 8 -10 18 -17 15 -13 16 -12 3 4 -13 16 -21 21 -21
13z"/>
<path d="M4369 2488 c11 -15 41 -15 41 -1 0 3 -6 3 -14 0 -7 -3 -20 0 -27 6
-11 10 -11 9 0 -5z"/>
<path d="M5969 2488 c11 -15 41 -15 41 -1 0 3 -6 3 -14 0 -7 -3 -20 0 -27 6
-11 10 -11 9 0 -5z"/>
<path d="M6120 2496 c0 -2 8 -10 18 -17 15 -13 16 -12 3 4 -13 16 -21 21 -21
13z"/>
<path d="M6289 2488 c11 -15 41 -15 41 -1 0 3 -6 3 -14 0 -7 -3 -20 0 -27 6
-11 10 -11 9 0 -5z"/>
<path d="M6820 2866 c0 -2 9 -6 20 -9 11 -3 18 -1 14 4 -5 9 -34 13 -34 5z"/>
<path d="M6840 2800 c8 -5 20 -10 25 -10 6 0 3 5 -5 10 -8 5 -19 10 -25 10 -5
0 -3 -5 5 -10z"/>
<path d="M6835 2640 c3 -5 8 -10 11 -10 2 0 4 5 4 10 0 6 -5 10 -11 10 -5 0
-7 -4 -4 -10z"/>
<path d="M1930 2520 c0 -5 5 -10 11 -10 5 0 7 5 4 10 -3 6 -8 10 -11 10 -2 0
-4 -4 -4 -10z"/>
<path d="M6830 2526 c0 -2 7 -7 16 -10 8 -3 12 -2 9 4 -6 10 -25 14 -25 6z"/>
<path d="M2676 2501 c-4 -6 -13 -9 -19 -5 -7 3 -2 -3 9 -13 18 -16 19 -21 8
-29 -10 -7 -11 -13 -3 -24 9 -13 10 -12 5 3 -3 9 -3 17 1 17 3 0 12 -8 20 -17
13 -16 13 -16 4 4 -10 19 -8 22 9 20 14 -1 19 -6 15 -17 -2 -8 3 -5 11 8 9 12
22 22 28 22 7 0 6 -3 -2 -9 -10 -6 -9 -11 4 -22 13 -11 18 -11 21 -1 3 6 11
12 19 12 8 0 14 4 14 9 0 13 25 8 46 -9 11 -9 15 -10 10 -2 -10 17 9 15 28 -3
8 -8 18 -15 22 -15 3 0 1 7 -6 15 -14 17 -7 19 20 5 13 -7 21 -7 25 0 3 5 11
10 16 10 6 0 8 -4 4 -9 -9 -15 15 -25 28 -12 9 9 7 10 -8 5 -18 -7 -19 -6 -6
10 14 17 15 17 28 0 14 -19 43 -28 43 -13 0 14 27 11 34 -3 3 -7 3 -2 0 11 -4
15 -2 21 4 17 6 -4 16 2 22 11 10 16 10 15 5 -4 -6 -23 8 -32 20 -13 8 13 48
7 53 -8 2 -7 -6 -9 -21 -6 -17 3 -27 -1 -31 -12 -5 -13 -3 -14 6 -7 7 6 21 9
31 8 9 -2 22 5 27 16 6 10 16 19 23 19 9 0 9 -3 -1 -9 -10 -6 -9 -11 4 -22 13
-11 18 -11 21 -1 3 6 11 12 19 12 8 0 14 4 14 9 0 13 25 8 46 -9 11 -9 15 -10
10 -2 -10 17 9 15 28 -3 8 -8 18 -15 22 -15 3 0 1 7 -6 15 -14 17 -7 19 20 5
13 -7 21 -7 25 0 3 5 11 10 16 10 6 0 8 -4 4 -9 -9 -15 15 -25 28 -12 9 9 7
10 -8 5 -18 -7 -19 -6 -6 10 14 17 15 17 28 0 14 -19 43 -28 43 -13 0 14 27
11 34 -3 3 -7 3 -2 0 11 -4 15 -2 21 4 17 6 -4 15 2 21 11 8 16 5 18 -24 18
-18 0 -37 -3 -40 -7 -4 -4 -16 -3 -26 3 -11 5 -19 7 -19 4 0 -3 -9 -1 -19 5
-14 7 -22 7 -26 0 -4 -6 -10 -8 -15 -5 -5 3 -11 1 -15 -5 -4 -7 -12 -7 -26 0
-10 6 -19 8 -19 5 0 -3 -8 -2 -17 3 -12 7 -24 5 -40 -5 -21 -14 -23 -14 -29 1
-5 13 -9 14 -21 4 -13 -10 -13 -13 0 -23 14 -10 13 -13 -5 -24 -18 -11 -20
-11 -15 3 7 17 -28 42 -52 37 -8 -1 -10 2 -5 11 6 10 4 10 -7 2 -8 -6 -38 -10
-67 -9 -29 1 -55 -2 -58 -7 -3 -4 -14 -3 -25 2 -10 6 -19 8 -19 5 0 -3 -9 -1
-19 5 -14 7 -22 7 -26 0 -4 -6 -10 -8 -15 -5 -5 3 -11 1 -15 -5 -4 -7 -12 -7
-26 0 -10 6 -19 8 -19 5 0 -3 -8 -2 -17 3 -12 7 -24 5 -40 -5 -21 -14 -23 -14
-29 1 -5 13 -9 14 -21 4 -13 -10 -13 -13 0 -23 14 -10 13 -13 -5 -24 -18 -11
-20 -11 -15 2 7 18 -27 42 -58 42 -11 -1 -23 3 -26 8 -4 5 -10 4 -13 -2z m208
-17 c9 -8 16 -10 16 -4 0 7 6 8 18 1 13 -7 23 -6 32 2 10 9 11 9 6 0 -10 -18
4 -16 18 2 7 9 16 12 25 6 17 -11 6 -32 -13 -25 -8 3 -17 1 -21 -5 -4 -8 -12
-8 -26 0 -11 6 -26 8 -34 6 -7 -3 -18 0 -24 6 -8 8 -11 7 -11 -3 0 -10 -3 -11
-11 -3 -6 6 -8 16 -5 22 9 14 12 14 30 -5z m480 0 c9 -8 16 -10 16 -4 0 7 6 8
18 1 13 -7 23 -6 32 2 10 9 11 9 6 0 -10 -18 4 -16 18 2 7 9 16 12 25 6 17
-11 6 -32 -13 -25 -8 3 -17 1 -21 -5 -4 -8 -12 -8 -26 0 -11 6 -26 8 -34 6 -7
-3 -18 0 -24 6 -8 8 -11 7 -11 -3 0 -10 -3 -11 -11 -3 -6 6 -8 16 -5 22 9 14
12 14 30 -5z m-626 -10 c-4 -12 -28 -14 -28 -3 0 6 -4 8 -8 5 -4 -2 -14 -1
-22 4 -8 5 0 7 24 6 20 -2 35 -7 34 -12z m77 6 c3 -6 -1 -7 -9 -4 -18 7 -21
14 -7 14 6 0 13 -4 16 -10z m238 -8 c9 -2 17 2 17 7 0 12 35 9 47 -3 5 -4 4
-6 -2 -5 -5 2 -25 -5 -44 -15 -18 -10 -30 -13 -27 -8 3 6 -1 12 -9 16 -8 3
-15 11 -15 18 0 8 3 9 8 3 4 -5 15 -11 25 -13z m117 14 c0 -2 -7 -9 -15 -16
-13 -11 -14 -10 -9 4 5 14 24 23 24 12z m54 -17 c-3 -5 -10 -7 -15 -3 -5 3 -7
10 -3 15 3 5 10 7 15 3 5 -3 7 -10 3 -15z m71 11 c3 -6 -1 -7 -9 -4 -18 7 -21
14 -7 14 6 0 13 -4 16 -10z m238 -8 c9 -2 17 2 17 7 0 12 35 9 47 -3 5 -4 4
-6 -2 -5 -5 2 -25 -5 -44 -15 -18 -10 -30 -13 -27 -8 3 6 -1 12 -9 16 -8 3
-15 11 -15 18 0 8 3 9 8 3 4 -5 15 -11 25 -13z"/>
<path d="M3755 2500 c-3 -5 -1 -10 4 -10 6 0 11 5 11 10 0 6 -2 10 -4 10 -3 0
-8 -4 -11 -10z"/>
<path d="M4596 2501 c-4 -6 -13 -9 -19 -5 -7 3 -2 -3 9 -13 18 -16 19 -21 8
-29 -10 -7 -11 -13 -3 -24 9 -13 10 -12 5 3 -3 9 -3 17 1 17 3 0 12 -8 20 -17
13 -16 13 -16 4 4 -10 19 -8 22 9 20 14 -1 19 -6 15 -17 -2 -8 3 -5 11 8 9 12
22 22 28 22 7 0 6 -3 -2 -9 -10 -6 -9 -11 4 -22 13 -11 18 -11 21 -1 3 6 11
12 19 12 8 0 14 4 14 9 0 13 25 8 46 -9 11 -9 15 -10 10 -2 -10 17 9 15 28 -3
8 -8 18 -15 22 -15 3 0 1 7 -6 15 -14 17 -7 19 20 5 13 -7 21 -7 25 0 3 5 11
10 16 10 6 0 8 -4 4 -9 -9 -15 15 -25 28 -12 9 9 7 10 -8 5 -18 -7 -19 -6 -6
10 14 17 15 17 28 0 14 -19 43 -28 43 -13 0 14 27 11 34 -3 3 -7 3 -2 0 11 -4
15 -2 21 4 17 6 -4 16 2 22 11 10 16 10 15 5 -4 -6 -23 8 -32 20 -13 8 13 48
7 53 -8 2 -7 -6 -9 -21 -6 -17 3 -27 -1 -31 -12 -5 -13 -3 -14 6 -7 7 6 21 9
31 8 9 -2 22 5 27 16 6 10 16 19 23 19 9 0 9 -3 -1 -9 -10 -6 -9 -11 4 -22 13
-11 18 -11 21 -1 3 6 11 12 19 12 8 0 14 4 14 9 0 13 25 8 46 -9 11 -9 15 -10
10 -2 -10 17 9 15 28 -3 8 -8 18 -15 22 -15 3 0 1 7 -6 15 -14 17 -7 19 20 5
13 -7 21 -7 25 0 3 5 11 10 16 10 6 0 8 -4 4 -9 -9 -15 15 -25 28 -12 9 9 7
10 -8 5 -18 -7 -19 -6 -6 10 14 17 15 17 28 0 14 -19 43 -28 43 -13 0 14 27
11 34 -3 3 -7 3 -2 0 11 -4 15 -2 21 4 17 6 -4 15 2 21 11 8 16 5 18 -24 18
-18 0 -37 -3 -40 -7 -4 -4 -16 -3 -26 3 -11 5 -19 7 -19 4 0 -3 -9 -1 -19 5
-14 7 -22 7 -26 0 -4 -6 -10 -8 -15 -5 -5 3 -11 1 -15 -5 -4 -7 -12 -7 -26 0
-10 6 -19 8 -19 5 0 -3 -8 -2 -17 3 -12 7 -24 5 -40 -5 -21 -14 -23 -14 -29 1
-5 13 -9 14 -21 4 -13 -10 -13 -13 0 -23 14 -10 13 -13 -5 -24 -18 -11 -20
-11 -15 3 7 17 -28 42 -52 37 -8 -1 -10 2 -5 11 6 10 4 10 -7 2 -8 -6 -38 -10
-67 -9 -29 1 -55 -2 -58 -7 -3 -4 -14 -3 -25 2 -10 6 -19 8 -19 5 0 -3 -9 -1
-19 5 -14 7 -22 7 -26 0 -4 -6 -10 -8 -15 -5 -5 3 -11 1 -15 -5 -4 -7 -12 -7
-26 0 -10 6 -19 8 -19 5 0 -3 -8 -2 -17 3 -12 7 -24 5 -40 -5 -21 -14 -23 -14
-29 1 -5 13 -9 14 -21 4 -13 -10 -13 -13 0 -23 14 -10 13 -13 -5 -24 -18 -11
-20 -11 -15 2 7 18 -27 42 -58 42 -11 -1 -23 3 -26 8 -4 5 -10 4 -13 -2z m208
-17 c9 -8 16 -10 16 -4 0 7 6 8 18 1 13 -7 23 -6 32 2 10 9 11 9 6 0 -10 -18
4 -16 18 2 7 9 16 12 25 6 17 -11 6 -32 -13 -25 -8 3 -17 1 -21 -5 -4 -8 -12
-8 -26 0 -11 6 -26 8 -34 6 -7 -3 -18 0 -24 6 -8 8 -11 7 -11 -3 0 -10 -3 -11
-11 -3 -6 6 -8 16 -5 22 9 14 12 14 30 -5z m480 0 c9 -8 16 -10 16 -4 0 7 6 8
18 1 13 -7 23 -6 32 2 10 9 11 9 6 0 -10 -18 4 -16 18 2 7 9 16 12 25 6 17
-11 6 -32 -13 -25 -8 3 -17 1 -21 -5 -4 -8 -12 -8 -26 0 -11 6 -26 8 -34 6 -7
-3 -18 0 -24 6 -8 8 -11 7 -11 -3 0 -10 -3 -11 -11 -3 -6 6 -8 16 -5 22 9 14
12 14 30 -5z m-626 -10 c-4 -12 -28 -14 -28 -3 0 6 -4 8 -8 5 -4 -2 -14 -1
-22 4 -8 5 0 7 24 6 20 -2 35 -7 34 -12z m77 6 c3 -6 -1 -7 -9 -4 -18 7 -21
14 -7 14 6 0 13 -4 16 -10z m238 -8 c9 -2 17 2 17 7 0 12 35 9 47 -3 5 -4 4
-6 -2 -5 -5 2 -25 -5 -44 -15 -18 -10 -30 -13 -27 -8 3 6 -1 12 -9 16 -8 3
-15 11 -15 18 0 8 3 9 8 3 4 -5 15 -11 25 -13z m117 14 c0 -2 -7 -9 -15 -16
-13 -11 -14 -10 -9 4 5 14 24 23 24 12z m54 -17 c-3 -5 -10 -7 -15 -3 -5 3 -7
10 -3 15 3 5 10 7 15 3 5 -3 7 -10 3 -15z m71 11 c3 -6 -1 -7 -9 -4 -18 7 -21
14 -7 14 6 0 13 -4 16 -10z m238 -8 c9 -2 17 2 17 7 0 12 35 9 47 -3 5 -4 4
-6 -2 -5 -5 2 -25 -5 -44 -15 -18 -10 -30 -13 -27 -8 3 6 -1 12 -9 16 -8 3
-15 11 -15 18 0 8 3 9 8 3 4 -5 15 -11 25 -13z"/>
<path d="M5675 2500 c-3 -5 -1 -10 4 -10 6 0 11 5 11 10 0 6 -2 10 -4 10 -3 0
-8 -4 -11 -10z"/>
<path d="M6515 2500 c-3 -5 -1 -10 4 -10 6 0 11 5 11 10 0 6 -2 10 -4 10 -3 0
-8 -4 -11 -10z"/>
<path d="M6635 2500 c-3 -5 -1 -10 4 -10 6 0 11 5 11 10 0 6 -2 10 -4 10 -3 0
-8 -4 -11 -10z"/>
<path d="M2830 2439 c0 -5 5 -7 10 -4 6 3 10 8 10 11 0 2 -4 4 -10 4 -5 0 -10
-5 -10 -11z"/>
<path d="M3310 2439 c0 -5 5 -7 10 -4 6 3 10 8 10 11 0 2 -4 4 -10 4 -5 0 -10
-5 -10 -11z"/>
<path d="M3790 2439 c0 -5 5 -7 10 -4 6 3 10 8 10 11 0 2 -4 4 -10 4 -5 0 -10
-5 -10 -11z"/>
<path d="M4750 2439 c0 -5 5 -7 10 -4 6 3 10 8 10 11 0 2 -4 4 -10 4 -5 0 -10
-5 -10 -11z"/>
<path d="M5230 2439 c0 -5 5 -7 10 -4 6 3 10 8 10 11 0 2 -4 4 -10 4 -5 0 -10
-5 -10 -11z"/>
<path d="M5710 2439 c0 -5 5 -7 10 -4 6 3 10 8 10 11 0 2 -4 4 -10 4 -5 0 -10
-5 -10 -11z"/>
<path d="M6670 2439 c0 -5 5 -7 10 -4 6 3 10 8 10 11 0 2 -4 4 -10 4 -5 0 -10
-5 -10 -11z"/>
<path d="M6716 2418 c3 -5 10 -6 15 -3 13 9 11 12 -6 12 -8 0 -12 -4 -9 -9z"/>
<path d="M328 1785 c0 0 -2 -284 -3 -632 -1 -566 0 -632 14 -635 9 -2 288 -3
621 -3 l605 1 1 357 1 357 -78 0 -79 0 0 -278 0 -278 -465 0 -465 0 0 46 c-1
53 -1 733 0 836 l0 71 293 1 c160 0 300 1 310 1 16 1 18 10 15 79 l-3 77 -382
0 c-211 0 -384 0 -385 0z"/>
<path d="M1096 1449 l-207 -211 -73 76 c-40 42 -75 76 -78 76 -3 0 -44 -39
-91 -87 -55 -57 -83 -92 -78 -100 4 -7 78 -84 164 -172 l158 -158 168 171 c93
94 227 231 299 305 l131 135 -86 88 c-48 48 -90 88 -93 88 -4 0 -100 -95 -214
-211z"/>
<path d="M1991 1382 c-36 -5 -67 -29 -81 -61 -7 -19 -10 -82 -8 -189 3 -156 4
-162 28 -184 13 -13 28 -22 32 -20 5 1 8 -2 8 -6 0 -5 65 -8 144 -7 80 0 142
-3 140 -7 -3 -4 0 -8 5 -8 6 0 11 4 11 8 0 4 24 8 54 8 30 -1 52 -4 50 -8 -2
-3 0 -9 6 -13 5 -3 10 0 10 7 0 8 10 14 23 14 13 0 24 -5 24 -11 0 -7 -6 -12
-13 -12 -7 0 -10 5 -7 10 3 6 1 7 -6 3 -6 -4 -8 -12 -5 -18 5 -7 2 -8 -6 -3
-9 6 -11 4 -5 -6 7 -11 6 -12 -6 -2 -12 10 -18 10 -27 1 -9 -9 -12 -9 -12 -1
0 6 5 13 12 15 7 3 8 7 3 10 -6 3 -21 -11 -33 -31 -13 -20 -18 -30 -11 -24 10
10 17 9 33 -5 16 -13 18 -13 8 -1 -21 27 -1 29 22 2 17 -19 23 -22 23 -10 0 9
-5 15 -10 14 -5 -1 -12 4 -15 12 -3 9 0 11 7 6 7 -4 19 1 27 11 14 18 15 18 9
-3 -5 -19 -2 -23 17 -22 17 0 19 2 7 7 -13 6 -14 12 -5 32 10 22 17 25 63 25
28 1 49 -3 47 -7 -3 -4 0 -8 5 -8 6 0 11 4 11 8 0 10 208 8 239 -2 13 -5 21
-4 18 0 -3 5 84 9 193 9 109 0 196 -3 193 -7 -2 -5 1 -8 6 -8 6 0 11 4 11 8 0
4 24 8 54 8 30 -1 52 -4 50 -8 -2 -3 0 -9 6 -13 5 -3 10 0 10 7 0 8 10 14 23
14 13 0 24 -5 24 -11 0 -7 -6 -12 -13 -12 -7 0 -10 5 -7 10 3 6 1 7 -6 3 -6
-4 -8 -12 -5 -18 5 -7 2 -8 -6 -3 -9 6 -11 4 -5 -6 7 -11 6 -12 -6 -2 -12 10
-18 10 -27 1 -9 -9 -12 -9 -12 -1 0 6 5 13 12 15 7 3 8 7 3 10 -6 3 -21 -11
-33 -31 -13 -20 -18 -30 -11 -24 10 10 17 9 33 -5 16 -13 18 -13 8 -1 -21 27
-1 29 22 2 17 -19 23 -22 23 -10 0 9 -5 15 -10 14 -5 -1 -12 4 -15 12 -3 9 0
11 7 6 7 -4 19 1 27 11 14 18 15 18 9 -3 -5 -19 -2 -23 17 -22 17 0 19 2 7 7
-13 6 -14 12 -5 32 10 22 17 25 63 25 28 1 49 -3 47 -7 -3 -4 0 -8 5 -8 6 0
11 4 11 8 0 10 208 8 239 -2 13 -5 21 -4 18 0 -3 5 44 9 103 9 60 0 106 -3
104 -7 -3 -5 0 -8 5 -8 6 0 11 4 11 8 0 9 267 8 276 -1 12 -12 26 -8 18 5 -4
7 -3 8 5 4 6 -4 9 -13 5 -19 -3 -7 0 -5 8 3 11 13 41 15 165 15 83 0 149 -3
147 -7 -3 -5 0 -8 5 -8 6 0 11 4 11 8 0 9 267 8 276 -1 12 -12 26 -8 18 5 -4
7 -3 8 5 4 6 -4 9 -13 5 -19 -3 -7 0 -5 8 3 11 13 41 15 165 15 83 0 149 -3
147 -7 -3 -5 0 -8 5 -8 6 0 11 4 11 8 0 9 267 8 276 -1 12 -12 26 -8 18 5 -4
7 -3 8 5 4 6 -4 9 -13 5 -19 -3 -7 0 -5 8 3 11 13 41 15 165 15 83 0 149 -3
147 -7 -3 -5 0 -8 5 -8 6 0 11 4 11 8 0 9 267 8 276 -1 12 -12 26 -8 18 5 -4
7 -3 8 5 4 6 -4 9 -13 5 -19 -3 -7 0 -5 8 3 10 11 34 15 95 15 45 1 79 -3 77
-7 -3 -4 0 -8 5 -8 6 0 11 4 11 8 0 4 24 8 54 8 30 -1 52 -4 50 -8 -2 -3 0 -9
6 -13 5 -3 10 0 10 7 0 8 10 14 23 14 13 0 24 -5 24 -11 0 -7 -6 -12 -13 -12
-7 0 -10 5 -7 10 3 6 1 7 -6 3 -6 -4 -8 -12 -5 -18 5 -7 2 -8 -6 -3 -9 6 -11
4 -5 -6 7 -11 6 -12 -6 -2 -12 10 -18 10 -27 1 -9 -9 -12 -9 -12 -1 0 6 5 13
12 15 7 3 8 7 3 10 -6 3 -21 -11 -33 -31 -13 -20 -18 -30 -11 -24 10 10 17 9
33 -5 16 -13 18 -13 8 -1 -18 24 -2 31 18 7 12 -15 19 -18 24 -9 4 7 2 10 -5
9 -6 -2 -14 3 -17 11 -3 9 0 11 7 6 7 -4 19 1 27 11 14 18 15 18 9 -3 -5 -19
-2 -23 17 -22 17 0 19 2 7 7 -13 6 -14 12 -5 32 10 22 17 25 56 25 25 -1 51 3
58 8 7 6 12 6 12 -1 0 -6 -6 -13 -12 -15 -10 -4 -10 -6 -1 -6 7 -1 20 13 28
29 9 17 20 28 25 25 5 -3 11 -1 15 5 3 5 0 10 -7 10 -8 0 -9 3 -3 8 6 4 10 18
10 32 0 28 17 34 21 7 1 -9 -2 -15 -7 -11 -5 3 -9 1 -9 -5 0 -5 5 -13 10 -16
8 -5 8 -11 0 -20 -8 -10 -7 -14 2 -18 9 -4 10 -6 1 -6 -7 -1 -10 -8 -7 -19 4
-10 2 -13 -3 -7 -4 6 -16 11 -27 13 -14 3 -17 -1 -12 -13 4 -11 2 -14 -7 -9
-7 5 -5 0 3 -11 9 -11 10 -16 3 -11 -8 4 -13 2 -13 -6 0 -10 -3 -9 -10 2 -5 8
-13 11 -17 6 -4 -5 -2 -11 5 -13 10 -4 9 -10 -5 -27 -17 -20 -16 -20 8 1 27
24 49 30 49 13 0 -5 5 -10 11 -10 8 0 8 4 0 14 -19 22 -22 56 -5 49 7 -3 12
-8 9 -13 -2 -4 2 -16 10 -26 8 -10 15 -14 15 -7 0 6 -5 15 -10 18 -12 7 -4 25
11 25 6 0 7 -5 3 -12 -4 -7 -3 -8 5 -4 9 6 9 11 0 22 -10 12 -7 20 12 42 22
25 22 25 2 8 -24 -20 -32 -10 -10 13 10 11 10 13 0 7 -7 -4 -13 -3 -13 2 0 16
13 22 26 11 8 -7 14 -6 20 2 4 7 3 9 -3 6 -16 -10 -65 52 -67 83 -1 16 2 27 6
24 4 -3 8 -1 8 5 0 5 -4 12 -8 15 -15 9 -8 79 8 84 13 3 13 2 0 -8 -13 -10
-12 -11 3 -6 12 4 17 2 14 -6 -2 -7 -10 -12 -16 -10 -8 1 -9 -2 -4 -10 11 -19
11 -108 0 -101 -6 4 -7 1 -3 -6 5 -7 11 -10 14 -6 3 3 11 -4 17 -16 11 -19 13
-19 18 -5 4 10 3 15 -1 12 -4 -3 -13 4 -20 15 -13 20 -4 26 16 9 6 -6 10 -7 7
-4 -3 4 0 13 6 20 8 10 5 12 -13 9 -18 -4 -24 0 -24 15 0 15 5 19 21 15 18 -5
18 -5 -2 7 -26 15 -30 28 -11 39 11 7 11 12 0 29 -11 18 -11 21 4 18 9 -2 19
4 21 12 4 13 3 13 -6 0 -6 -8 -11 -10 -11 -5 0 6 -8 15 -18 22 -15 9 -19 8
-19 -3 0 -7 4 -11 9 -8 4 3 8 0 8 -6 0 -7 -6 -10 -12 -7 -8 2 -13 21 -13 48 1
47 -3 55 -49 85 -29 19 -76 19 -2375 19 -1291 0 -2357 -2 -2370 -3z"/>
<path d="M6806 1291 c-17 -6 -17 -8 -4 -14 10 -3 19 0 22 9 3 8 4 14 3 13 -1
0 -11 -4 -21 -8z"/>
<path d="M6835 1279 c-4 -6 -5 -12 -2 -15 2 -3 7 2 10 11 7 17 1 20 -8 4z"/>
<path d="M6835 1160 c3 -5 8 -10 11 -10 2 0 4 5 4 10 0 6 -5 10 -11 10 -5 0
-7 -4 -4 -10z"/>
<path d="M6766 938 c3 -5 10 -6 15 -3 13 9 11 12 -6 12 -8 0 -12 -4 -9 -9z"/>
<path d="M1967 895 c18 -8 31 -20 30 -27 -2 -7 -2 -10 0 -5 3 4 9 7 14 7 6 0
7 -6 3 -12 -6 -10 -4 -10 8 0 9 7 29 15 45 17 28 5 28 5 -6 -13 -27 -15 -30
-20 -17 -25 10 -4 15 -3 11 3 -5 9 0 11 21 10 3 -1 13 9 23 21 12 15 20 19 25
11 4 -7 3 -12 -3 -12 -6 0 -15 -8 -20 -18 -7 -14 -6 -19 4 -19 7 0 11 7 8 16
-3 11 0 10 12 -4 17 -20 17 -20 10 5 -6 20 -5 23 6 13 18 -18 32 -16 26 2 -4
8 -2 17 3 20 13 8 18 -17 9 -43 -6 -15 -5 -21 1 -17 6 3 10 13 10 21 0 8 5 12
10 9 6 -4 8 -10 6 -14 -3 -4 2 -8 10 -8 10 0 11 4 4 11 -15 15 -12 30 3 17 10
-8 17 -7 26 2 11 10 12 8 7 -10 -4 -12 -2 -24 3 -28 7 -4 8 1 4 12 -6 16 -5
17 13 3 15 -11 16 -11 7 0 -17 19 -17 35 0 21 10 -8 19 -6 36 10 27 25 19 41
-17 33 -15 -3 -34 -6 -42 -5 -89 6 -252 5 -256 -1 -3 -4 -14 -4 -24 2 -10 5
-25 10 -32 10 -7 -1 2 -7 19 -15z m138 -5 c-2 -3 -19 -5 -37 -5 -18 1 -36 -4
-40 -9 -5 -7 -8 -6 -8 2 0 7 -5 10 -12 6 -6 -4 -9 -3 -5 2 3 5 28 10 56 10 27
0 48 -3 46 -6z m55 -5 c-6 -7 -7 -15 -3 -18 3 -4 4 -7 1 -7 -3 0 -12 8 -21 18
-15 17 -15 18 8 18 17 0 21 -3 15 -11z m86 2 c4 -3 3 -11 -1 -17 -5 -8 -11 -8
-17 -2 -6 6 -16 8 -23 6 -7 -3 -15 1 -18 9 -4 11 2 14 24 12 17 -1 32 -5 35
-8z m66 -7 c-10 -13 -20 -16 -27 -10 -7 6 -14 9 -16 7 -2 -1 1 3 7 8 7 6 21
11 32 12 19 2 20 0 4 -17z"/>
<path d="M2460 896 c-15 -15 -12 -22 16 -35 20 -9 30 -9 40 0 17 14 18 -2 2
-21 -7 -8 -4 -7 8 3 16 13 23 14 34 4 12 -10 12 -9 1 6 -15 19 -2 24 17 5 9
-9 9 -15 -1 -27 -10 -14 -10 -14 4 -4 9 7 20 9 25 5 4 -4 3 0 -4 9 -6 9 -9 19
-5 23 4 4 13 -4 20 -16 13 -22 14 -22 8 -1 -4 15 -2 21 9 19 9 -1 19 -5 22 -9
4 -4 16 -7 26 -7 13 0 17 -4 12 -12 -4 -7 -4 -10 1 -6 4 4 15 2 24 -5 14 -11
15 -10 1 7 -8 10 -22 21 -32 25 -17 6 -17 8 -3 26 10 13 13 14 10 4 -7 -20 41
-44 59 -30 7 6 17 6 26 1 8 -5 18 -6 24 -3 5 4 7 -2 3 -13 -7 -18 -7 -18 8 0
8 11 15 16 15 12 0 -5 6 -3 13 3 8 6 17 8 20 4 10 -9 9 -25 -1 -19 -5 3 -9 -2
-9 -11 0 -12 5 -11 19 7 16 19 22 19 20 -1 -1 -3 5 -6 13 -6 7 0 11 6 8 14 -3
7 -10 13 -16 13 -15 0 1 13 19 16 10 2 14 -3 10 -11 -3 -10 0 -12 12 -8 15 6
16 5 2 -13 -14 -18 -14 -18 5 -4 11 8 26 23 33 33 7 9 17 15 22 12 5 -3 0 -15
-10 -25 -11 -11 -20 -26 -20 -32 1 -7 7 -2 15 12 12 21 19 21 17 -1 -1 -3 6
-6 14 -6 10 0 11 4 4 11 -16 16 -12 30 5 16 12 -10 18 -8 33 10 13 16 21 20
26 12 4 -7 3 -12 -3 -12 -6 0 -15 -8 -20 -18 -7 -14 -6 -19 4 -19 7 0 11 7 8
16 -3 11 0 10 12 -4 17 -20 17 -20 10 5 -6 20 -5 23 6 13 18 -18 32 -16 26 2
-4 8 -2 17 3 20 13 8 18 -17 9 -43 -6 -15 -5 -21 1 -17 6 3 10 13 10 21 0 8 5
12 10 9 6 -4 8 -10 6 -14 -3 -4 2 -8 10 -8 10 0 11 4 4 11 -15 15 -12 30 3 17
10 -8 17 -7 26 2 11 10 12 8 7 -10 -4 -12 -2 -24 3 -28 7 -4 8 1 4 12 -6 16
-5 17 13 3 15 -11 16 -11 7 0 -17 19 -17 35 0 21 10 -8 19 -6 36 10 27 25 19
41 -17 33 -15 -3 -34 -6 -42 -5 -84 6 -343 5 -347 -2 -2 -4 -11 -3 -19 4 -8 6
-15 9 -15 5 -1 -3 -3 -10 -4 -16 -1 -5 -3 -13 -4 -17 0 -4 -8 2 -16 13 -8 10
-15 15 -15 10 0 -5 -6 -4 -12 1 -20 15 -211 10 -216 -5 -3 -10 -7 -10 -19 0
-19 15 -79 18 -93 4z m88 -15 c3 -9 -1 -12 -10 -8 -9 3 -20 1 -26 -5 -11 -11
-56 8 -48 21 8 13 79 6 84 -8z m125 2 c-3 -7 -18 -10 -39 -8 -19 1 -37 -1 -40
-6 -3 -5 -10 -7 -15 -3 -21 12 11 30 54 30 31 0 43 -4 40 -13z m117 7 c3 -1 8
-2 12 -2 3 1 8 -4 11 -12 3 -7 -1 -13 -9 -13 -8 0 -14 4 -14 8 0 9 -20 6 -37
-4 -14 -9 -56 10 -49 22 4 6 72 7 86 1z m84 -3 c4 4 32 8 61 8 52 1 54 0 38
-17 -16 -17 -17 -17 -36 -1 -23 22 -21 22 -45 0 -14 -13 -22 -15 -27 -7 -5 8
-11 7 -23 -2 -15 -11 -15 -11 -5 3 7 9 9 20 5 25 -4 4 0 3 9 -4 9 -6 19 -9 23
-5z m196 7 c0 0 -8 -8 -18 -18 -18 -15 -20 -15 -35 2 -15 17 -14 18 18 18 19
0 35 -1 35 -2z m50 -9 c-6 -7 -7 -15 -3 -18 3 -4 4 -7 1 -7 -3 0 -12 8 -21 18
-15 17 -15 18 8 18 17 0 21 -3 15 -11z m86 2 c4 -3 3 -11 -1 -17 -5 -8 -11 -8
-17 -2 -6 6 -16 8 -23 6 -7 -3 -15 1 -18 9 -4 11 2 14 24 12 17 -1 32 -5 35
-8z m66 -7 c-10 -13 -20 -16 -27 -10 -7 6 -14 9 -16 7 -2 -1 1 3 7 8 7 6 21
11 32 12 19 2 20 0 4 -17z"/>
<path d="M2490 878 c0 -4 4 -8 9 -8 6 0 12 4 15 8 3 5 -1 9 -9 9 -8 0 -15 -4
-15 -9z"/>
<path d="M2730 878 c0 -4 4 -8 9 -8 6 0 12 4 15 8 3 5 -1 9 -9 9 -8 0 -15 -4
-15 -9z"/>
<path d="M2946 878 c3 -5 10 -6 15 -3 13 9 11 12 -6 12 -8 0 -12 -4 -9 -9z"/>
<path d="M3026 878 c3 -5 10 -6 15 -3 13 9 11 12 -6 12 -8 0 -12 -4 -9 -9z"/>
<path d="M3420 896 c-15 -15 -12 -22 16 -35 20 -9 30 -9 40 0 17 14 18 -2 2
-21 -7 -8 -4 -7 8 3 16 13 23 14 34 4 12 -10 12 -9 1 6 -15 19 -2 24 17 5 9
-9 9 -15 -1 -27 -10 -14 -10 -14 4 -4 9 7 20 9 25 5 4 -4 3 0 -4 9 -6 9 -9 19
-5 23 4 4 13 -4 20 -16 13 -22 14 -22 8 -1 -4 15 -2 21 9 19 9 -1 19 -5 22 -9
4 -4 16 -7 26 -7 13 0 17 -4 12 -12 -4 -7 -4 -10 1 -6 4 4 15 2 24 -5 14 -11
15 -10 1 7 -8 10 -22 21 -32 25 -17 6 -17 8 -3 26 10 13 13 14 10 4 -7 -20 41
-44 59 -30 7 6 17 6 26 1 8 -5 18 -6 24 -3 5 4 7 -2 3 -13 -7 -18 -7 -18 8 0
8 11 15 16 15 12 0 -5 6 -3 13 3 8 6 17 8 20 4 10 -9 9 -25 -1 -19 -5 3 -9 -2
-9 -11 0 -11 8 -8 25 13 13 16 22 22 19 13 -4 -12 0 -15 19 -11 13 2 24 7 24
11 0 4 9 7 20 7 14 0 19 -5 15 -16 -4 -11 -1 -10 9 3 22 29 39 21 20 -10 -16
-27 -16 -27 8 2 22 25 28 28 42 16 13 -11 14 -17 4 -30 -11 -14 -11 -14 3 -4
9 7 20 9 25 5 4 -4 3 0 -4 9 -6 9 -9 19 -5 23 4 4 13 -4 20 -16 13 -22 14 -22
8 -1 -4 15 -2 21 9 19 9 -1 19 -5 22 -9 4 -4 16 -7 26 -7 11 0 17 -4 14 -8 -2
-4 4 -9 15 -9 10 -1 19 2 19 8 0 5 -3 8 -7 7 -5 0 -18 3 -31 8 -21 9 -21 11
-7 29 12 16 14 17 9 3 -3 -10 -1 -19 5 -19 21 -3 26 -4 39 -13 7 -4 19 -3 26
3 15 13 37 11 47 -3 4 -5 13 -5 20 0 21 13 33 11 47 -6 10 -13 11 -12 5 5 -6
18 -5 18 10 6 14 -11 15 -17 5 -30 -11 -14 -11 -14 3 -4 9 7 20 9 25 5 4 -4 3
0 -4 9 -6 9 -9 19 -5 23 4 4 13 -4 20 -16 13 -22 14 -22 8 -1 -4 15 -2 21 9
19 9 -1 19 -5 22 -9 4 -4 16 -7 26 -7 13 0 17 -4 12 -12 -4 -7 -4 -10 1 -6 4
4 15 2 24 -5 14 -11 15 -10 1 7 -8 10 -22 21 -32 25 -17 6 -17 8 -3 26 10 14
13 15 9 4 -6 -18 21 -33 39 -22 6 4 8 0 5 -9 -5 -11 0 -14 18 -10 13 2 24 7
24 11 0 4 9 7 20 7 14 0 19 -5 15 -16 -4 -11 -1 -10 9 3 22 29 39 21 20 -10
-16 -27 -16 -27 8 2 22 25 28 28 42 16 13 -11 14 -17 4 -30 -11 -14 -11 -14 3
-4 9 7 20 9 25 5 4 -4 3 0 -4 9 -6 9 -9 19 -5 23 4 4 13 -4 20 -16 13 -22 14
-22 8 -1 -4 15 -2 21 9 19 9 -1 19 -5 22 -9 4 -4 16 -7 26 -7 11 0 17 -4 14
-8 -2 -4 4 -9 15 -9 10 -1 19 2 19 8 0 5 -3 8 -7 7 -5 0 -18 3 -31 8 -21 9
-21 11 -7 29 12 16 14 17 9 3 -3 -10 -1 -19 5 -19 21 -3 26 -4 39 -13 7 -4 19
-3 26 3 15 13 37 11 47 -3 4 -5 13 -5 20 0 21 13 33 11 47 -6 10 -13 11 -12 5
5 -6 18 -5 18 10 6 14 -11 15 -17 5 -30 -11 -14 -11 -14 3 -4 9 7 20 9 25 5 4
-4 3 0 -4 9 -6 9 -9 19 -5 23 4 4 13 -4 20 -16 13 -22 14 -22 8 -1 -4 15 -2
21 9 19 9 -1 19 -5 22 -9 4 -4 16 -7 26 -7 13 0 17 -4 12 -12 -4 -7 -4 -10 1
-6 4 4 15 2 24 -5 14 -11 15 -10 1 7 -8 10 -22 21 -32 25 -17 6 -17 8 -3 26
10 14 13 15 9 4 -6 -18 21 -33 39 -22 6 4 8 0 5 -9 -5 -11 0 -14 18 -10 13 2
24 7 24 11 0 4 9 7 20 7 14 0 19 -5 15 -16 -4 -11 -1 -10 9 3 22 29 39 21 20
-10 -16 -27 -16 -27 8 2 22 25 28 28 42 16 13 -11 14 -17 4 -30 -11 -14 -11
-14 3 -4 9 7 20 9 25 5 4 -4 3 0 -4 9 -6 9 -9 19 -5 23 4 4 13 -4 20 -16 13
-22 14 -22 8 -1 -4 15 -2 21 9 19 9 -1 19 -5 22 -9 4 -4 16 -7 26 -7 11 0 17
-4 14 -8 -2 -4 4 -9 15 -9 10 -1 19 2 19 8 0 5 -3 8 -7 7 -5 0 -18 3 -31 8
-21 9 -21 11 -7 29 12 16 14 17 9 3 -5 -15 7 -25 19 -15 2 1 11 -4 20 -12 13
-10 20 -11 31 -2 15 13 37 11 48 -3 4 -6 14 -4 24 5 21 18 20 18 39 -6 l15
-20 -7 20 c-6 18 -5 18 10 6 14 -11 15 -17 5 -30 -11 -14 -11 -14 3 -4 9 7 20
9 25 5 4 -4 3 0 -4 9 -6 9 -9 19 -5 23 4 4 13 -4 20 -16 13 -22 14 -22 8 -1
-4 15 -2 21 9 19 9 -1 19 -5 22 -9 4 -4 16 -7 26 -7 13 0 17 -4 12 -12 -4 -7
-4 -10 1 -6 4 4 15 2 24 -5 14 -11 15 -10 1 7 -8 10 -22 21 -32 25 -17 6 -17
8 -3 26 10 14 13 15 9 4 -6 -18 21 -33 39 -22 6 4 8 0 5 -9 -5 -11 0 -14 18
-10 13 2 24 7 24 11 0 4 9 7 20 7 14 0 19 -5 15 -16 -4 -11 -1 -10 9 3 22 29
39 21 20 -10 -16 -27 -16 -27 8 2 22 25 28 28 42 16 13 -11 14 -17 4 -30 -11
-14 -11 -14 3 -4 9 7 20 9 25 5 4 -4 3 0 -4 9 -6 9 -9 19 -5 23 4 4 13 -4 20
-16 13 -22 14 -22 8 -1 -4 15 -2 21 9 19 9 -1 19 -5 22 -9 4 -4 16 -7 26 -7
11 0 17 -4 14 -8 -2 -4 4 -9 15 -9 10 -1 19 2 19 8 0 5 -3 8 -7 7 -5 0 -18 3
-31 8 -21 9 -21 11 -7 29 12 16 14 17 9 3 -3 -10 -1 -19 5 -19 21 -3 26 -4 39
-13 7 -4 19 -3 26 3 15 13 37 11 47 -3 4 -5 13 -5 20 0 21 13 33 11 47 -6 10
-13 11 -12 5 5 -6 18 -5 18 10 6 14 -11 15 -17 5 -30 -11 -14 -11 -14 3 -4 9
7 20 9 25 5 4 -4 3 0 -4 9 -6 9 -9 19 -5 23 4 4 13 -4 20 -16 13 -22 14 -22 8
-1 -4 15 -2 21 9 19 9 -1 19 -5 22 -9 4 -4 16 -7 26 -7 11 0 17 -4 14 -8 -3
-5 1 -9 9 -9 19 0 8 16 -16 25 -18 7 -18 9 -4 27 10 14 13 15 9 4 -6 -18 21
-33 38 -23 6 4 8 -1 4 -14 -4 -11 -2 -23 3 -27 7 -4 8 1 4 12 -6 16 -5 17 13
3 15 -11 16 -11 7 0 -17 19 -17 35 0 21 10 -8 19 -6 36 10 12 11 19 24 16 30
-6 9 -46 6 -65 -6 -6 -4 -16 -3 -23 2 -7 5 -43 9 -80 8 -55 -1 -71 -4 -79 -19
-9 -17 -11 -16 -33 4 -15 14 -25 18 -30 10 -4 -6 -12 -7 -18 -2 -14 10 -27 10
-44 -1 -6 -4 -14 -4 -17 1 -8 14 -169 8 -174 -6 -3 -10 -7 -10 -19 0 -17 14
-85 19 -77 6 3 -4 1 -8 -5 -8 -5 0 -12 4 -15 8 -3 5 -48 8 -101 7 -82 -1 -99
-4 -107 -19 -9 -17 -11 -16 -33 4 -15 14 -25 18 -30 10 -4 -7 -11 -8 -18 -1
-15 12 -29 12 -44 0 -6 -6 -14 -6 -16 -2 -9 14 -170 9 -175 -5 -3 -10 -7 -10
-19 0 -17 14 -85 19 -77 6 3 -4 1 -8 -5 -8 -5 0 -12 4 -15 8 -3 5 -48 8 -101
7 -82 -1 -99 -4 -107 -19 -9 -17 -11 -16 -33 4 -15 14 -25 18 -30 10 -4 -6
-12 -7 -18 -2 -14 10 -27 10 -44 -1 -6 -4 -14 -4 -17 1 -8 14 -169 8 -174 -6
-3 -10 -7 -10 -19 0 -17 14 -85 19 -77 6 3 -4 1 -8 -5 -8 -5 0 -12 4 -15 8 -3
5 -48 8 -101 7 -82 -1 -99 -4 -107 -19 -9 -17 -11 -16 -33 4 -15 14 -25 18
-30 10 -4 -6 -12 -7 -18 -2 -14 10 -27 10 -44 -1 -6 -4 -14 -4 -17 1 -8 14
-169 8 -174 -6 -3 -10 -7 -10 -19 0 -17 14 -85 19 -77 6 3 -4 1 -8 -5 -8 -5 0
-13 5 -16 10 -6 10 -45 7 -64 -4 -5 -4 -12 -2 -16 4 -4 6 -11 8 -16 4 -5 -3
-7 -9 -4 -14 3 -5 1 -11 -4 -14 -5 -3 -12 1 -15 10 -3 8 -10 13 -15 9 -5 -3
-12 -2 -15 3 -8 14 -209 8 -214 -6 -3 -10 -7 -10 -19 0 -19 15 -79 18 -93 4z
m88 -15 c3 -9 -1 -12 -10 -8 -9 3 -20 1 -26 -5 -11 -11 -56 8 -48 21 8 13 79
6 84 -8z m125 2 c-3 -7 -18 -10 -39 -8 -19 1 -37 -1 -40 -6 -3 -5 -10 -7 -15
-3 -21 12 11 30 54 30 31 0 43 -4 40 -13z m117 7 c3 -1 8 -2 12 -2 3 1 8 -4
11 -12 3 -7 -1 -13 -9 -13 -8 0 -14 4 -14 8 0 9 -20 6 -37 -4 -14 -9 -56 10
-49 22 4 6 72 7 86 1z m82 -4 c3 2 17 7 31 10 29 5 45 -12 27 -29 -9 -9 -14
-8 -24 6 -13 16 -14 16 -20 1 -5 -13 -10 -14 -18 -6 -9 9 -15 8 -27 -1 -14
-10 -14 -10 -4 4 7 9 9 20 5 25 -4 4 0 3 9 -4 9 -6 18 -9 21 -6z m156 -6 c2
-9 0 -11 -5 -5 -12 15 -33 17 -33 3 0 -9 -4 -8 -10 2 -6 10 -10 11 -10 3 0 -7
-5 -13 -11 -13 -8 0 -9 4 0 13 14 18 64 15 69 -3z m125 3 c-3 -7 -18 -10 -39
-8 -19 1 -37 -1 -40 -6 -3 -5 -10 -7 -15 -3 -21 12 11 30 54 30 31 0 43 -4 40
-13z m76 -2 c6 -10 10 -9 14 2 6 15 30 17 43 4 4 -4 13 -2 19 3 9 7 17 5 26
-7 8 -9 9 -14 2 -10 -6 4 -15 3 -18 -3 -5 -8 -11 -7 -21 1 -8 6 -14 8 -14 4 0
-4 -6 -2 -14 4 -11 9 -15 8 -20 -4 -4 -13 -10 -14 -26 -5 -11 6 -20 8 -20 5 0
-4 -5 -3 -10 0 -6 4 -8 10 -5 15 7 12 35 6 44 -9z m244 2 c-3 -7 -18 -10 -39
-8 -19 1 -37 -1 -40 -6 -3 -5 -10 -7 -15 -3 -21 12 11 30 54 30 31 0 43 -4 40
-13z m104 0 c7 -20 -19 -27 -33 -9 -8 12 -13 13 -16 5 -2 -7 -10 -9 -16 -5 -7
4 -10 11 -8 15 8 12 69 7 73 -6z m91 -3 c2 -9 0 -11 -5 -5 -12 15 -33 17 -33
3 0 -9 -4 -8 -10 2 -6 10 -10 11 -10 3 0 -7 -5 -13 -11 -13 -8 0 -9 4 0 13 14
18 64 15 69 -3z m125 3 c-3 -7 -18 -10 -39 -8 -19 1 -37 -1 -40 -6 -3 -5 -10
-7 -15 -3 -21 12 11 30 54 30 31 0 43 -4 40 -13z m76 -2 c6 -10 10 -9 14 2 6
15 30 17 43 4 4 -4 13 -2 19 3 9 7 17 5 26 -7 8 -9 9 -14 2 -10 -6 4 -15 3
-18 -3 -5 -8 -11 -7 -21 1 -8 6 -14 8 -14 4 0 -4 -6 -2 -14 4 -11 9 -15 8 -20
-4 -4 -13 -10 -14 -26 -5 -11 6 -20 8 -20 5 0 -4 -5 -3 -10 0 -6 4 -8 10 -5
15 7 12 35 6 44 -9z m244 2 c-3 -7 -18 -10 -39 -8 -19 1 -37 -1 -40 -6 -3 -5
-10 -7 -15 -3 -21 12 11 30 54 30 31 0 43 -4 40 -13z m104 0 c7 -20 -19 -27
-33 -9 -8 12 -13 13 -16 5 -2 -7 -10 -9 -16 -5 -7 4 -10 11 -8 15 8 12 69 7
73 -6z m91 -3 c2 -9 0 -11 -5 -5 -12 15 -33 17 -33 3 0 -9 -4 -8 -10 2 -6 10
-10 11 -10 3 0 -7 -5 -13 -11 -13 -8 0 -9 4 0 13 14 18 64 15 69 -3z m125 3
c-3 -7 -18 -10 -39 -8 -19 1 -37 -1 -40 -6 -3 -5 -10 -7 -15 -3 -21 12 11 30
54 30 31 0 43 -4 40 -13z m76 -2 c6 -10 10 -9 14 2 6 15 30 17 43 4 4 -4 13
-2 19 3 9 7 17 5 26 -7 8 -9 9 -14 2 -10 -6 4 -15 3 -18 -3 -5 -8 -11 -7 -21
1 -8 6 -14 8 -14 4 0 -4 -6 -2 -14 4 -11 9 -15 8 -20 -4 -4 -13 -10 -14 -26
-5 -11 6 -20 8 -20 5 0 -4 -5 -3 -10 0 -6 4 -8 10 -5 15 7 12 35 6 44 -9z
m244 2 c-3 -7 -18 -10 -39 -8 -19 1 -37 -1 -40 -6 -3 -5 -10 -7 -15 -3 -21 12
11 30 54 30 31 0 43 -4 40 -13z m104 0 c7 -20 -19 -27 -33 -9 -8 12 -13 13
-16 5 -2 -7 -10 -9 -16 -5 -7 4 -10 11 -8 15 8 12 69 7 73 -6z m91 -3 c2 -9 0
-11 -5 -5 -12 15 -33 17 -33 3 0 -9 -4 -8 -10 2 -6 10 -10 11 -10 3 0 -7 -5
-13 -11 -13 -8 0 -9 4 0 13 14 18 64 15 69 -3z m125 3 c-3 -7 -18 -10 -39 -8
-19 1 -37 -1 -40 -6 -3 -5 -10 -7 -15 -3 -21 12 11 30 54 30 31 0 43 -4 40
-13z m76 -2 c6 -10 10 -9 14 2 6 15 30 17 43 4 4 -4 13 -2 19 3 9 7 17 5 26
-7 8 -9 9 -14 2 -10 -6 4 -15 3 -18 -3 -5 -8 -11 -7 -21 1 -8 6 -14 8 -14 4 0
-4 -6 -2 -14 4 -11 9 -15 8 -20 -4 -4 -13 -10 -14 -26 -5 -11 6 -20 8 -20 5 0
-4 -5 -3 -10 0 -6 4 -8 10 -5 15 7 12 35 6 44 -9z m244 2 c-3 -7 -18 -10 -39
-8 -19 1 -37 -1 -40 -6 -3 -5 -10 -7 -15 -3 -21 12 11 30 54 30 31 0 43 -4 40
-13z m54 -9 c-9 -9 -28 6 -21 18 4 6 10 6 17 -1 6 -6 8 -13 4 -17z m65 6 c-10
-13 -20 -16 -27 -10 -7 6 -14 9 -16 7 -2 -1 1 3 7 8 7 6 21 11 32 12 19 2 20
0 4 -17z"/>
<path d="M3450 878 c0 -4 4 -8 9 -8 6 0 12 4 15 8 3 5 -1 9 -9 9 -8 0 -15 -4
-15 -9z"/>
<path d="M3690 878 c0 -4 4 -8 9 -8 6 0 12 4 15 8 3 5 -1 9 -9 9 -8 0 -15 -4
-15 -9z"/>
<path d="M3870 879 c0 -5 5 -7 10 -4 6 3 10 8 10 11 0 2 -4 4 -10 4 -5 0 -10
-5 -10 -11z"/>
<path d="M4510 879 c0 -5 5 -7 10 -4 6 3 10 8 10 11 0 2 -4 4 -10 4 -5 0 -10
-5 -10 -11z"/>
<path d="M5150 879 c0 -5 5 -7 10 -4 6 3 10 8 10 11 0 2 -4 4 -10 4 -5 0 -10
-5 -10 -11z"/>
<path d="M5790 879 c0 -5 5 -7 10 -4 6 3 10 8 10 11 0 2 -4 4 -10 4 -5 0 -10
-5 -10 -11z"/>
<path d="M6618 892 c-9 -10 -8 -16 3 -23 8 -5 20 -7 28 -4 9 3 11 0 7 -10 -3
-8 0 -14 7 -12 7 1 11 -4 9 -11 -1 -8 2 -11 9 -7 8 5 8 10 0 18 -16 16 -14 27
5 27 9 0 12 -5 8 -12 -4 -6 -3 -8 3 -5 5 3 9 16 8 29 -1 19 -8 23 -39 23 -20
1 -42 -5 -48 -13z m76 -4 c-3 -5 -10 -6 -15 -3 -5 4 -9 0 -10 -7 0 -10 -2 -10
-6 1 -4 10 -7 11 -13 1 -4 -7 -13 -9 -19 -6 -19 12 -4 22 33 22 19 0 32 -4 30
-8z"/>
<path d="M2755 840 c-4 -6 1 -7 11 -3 13 5 15 3 9 -7 -5 -9 -4 -11 4 -6 6 4 9
12 6 17 -8 12 -22 12 -30 -1z"/>
<path d="M3715 840 c-4 -6 1 -7 11 -3 13 5 15 3 9 -7 -5 -9 -4 -11 4 -6 6 4 9
12 6 17 -8 12 -22 12 -30 -1z"/>
<path d="M3985 840 c-3 -6 1 -7 9 -4 18 7 21 14 7 14 -6 0 -13 -4 -16 -10z"/>
<path d="M4280 846 c0 -2 7 -9 15 -16 13 -11 14 -10 9 4 -5 14 -24 23 -24 12z"/>
<path d="M4625 840 c-3 -6 1 -7 9 -4 18 7 21 14 7 14 -6 0 -13 -4 -16 -10z"/>
<path d="M4920 846 c0 -2 7 -9 15 -16 13 -11 14 -10 9 4 -5 14 -24 23 -24 12z"/>
<path d="M5265 840 c-3 -6 1 -7 9 -4 18 7 21 14 7 14 -6 0 -13 -4 -16 -10z"/>
<path d="M5560 846 c0 -2 7 -9 15 -16 13 -11 14 -10 9 4 -5 14 -24 23 -24 12z"/>
<path d="M5905 840 c-3 -6 1 -7 9 -4 18 7 21 14 7 14 -6 0 -13 -4 -16 -10z"/>
<path d="M6200 846 c0 -2 7 -9 15 -16 13 -11 14 -10 9 4 -5 14 -24 23 -24 12z"/>
<path d="M6736 834 c-5 -14 -4 -15 9 -4 17 14 19 20 6 20 -5 0 -12 -7 -15 -16z"/>
</g>
</svg>
